<?xml version="1.0" standalone="no"?>
<!DOCTYPE svg PUBLIC "-//W3C//DTD SVG 20010904//EN"
 "http://www.w3.org/TR/2001/REC-SVG-20010904/DTD/svg10.dtd">
<svg version="1.0" xmlns="http://www.w3.org/2000/svg"
 width="2240.000000pt" height="1402.000000pt" viewBox="0 0 2240.000000 1402.000000"
 preserveAspectRatio="xMidYMid meet">
<metadata>
Created by potrace 1.13, written by Peter Selinger 2001-2015
</metadata>
<g transform="translate(0.000000,1402.000000) scale(0.100000,-0.100000)"
fill="#000000" stroke="none">
<path d="M0 7010 l0 -7010 8500 0 8500 0 0 489 0 488 -147 7 c-82 3 -297 9
-479 12 l-332 7 -181 -143 c-100 -78 -181 -148 -181 -156 0 -8 10 -14 23 -14
35 -1 99 -34 134 -71 69 -73 83 -175 37 -268 -71 -141 -252 -170 -368 -58 -53
50 -82 132 -71 198 l7 40 -332 -261 -331 -260 -131 0 -130 0 5 27 c4 25 238
900 253 945 5 17 -2 18 -91 18 -96 0 -97 0 -91 23 3 12 6 68 6 125 l0 102 124
0 124 0 6 26 c4 15 6 27 4 28 -2 1 -77 26 -168 55 -91 29 -243 82 -338 118
-96 36 -175 63 -177 61 -5 -5 -187 -432 -192 -450 -4 -12 5 -20 36 -29 54 -16
119 -73 142 -123 22 -49 25 -143 6 -189 -34 -80 -130 -147 -211 -147 -90 0
-177 53 -218 134 -29 57 -30 147 -1 202 30 56 94 111 145 124 24 6 48 12 53
14 9 3 218 477 212 481 -1 1 -69 30 -152 65 -291 125 -676 323 -960 496 -65
40 -120 72 -121 71 -17 -23 -294 -460 -294 -465 0 -5 19 -13 43 -19 163 -45
212 -270 86 -390 -132 -125 -350 -56 -390 122 -9 43 -9 61 5 108 26 89 82 143
179 171 38 11 47 23 193 250 85 132 151 243 147 246 -5 4 -71 49 -148 100
-265 176 -565 408 -832 643 l-132 117 -200 -207 -200 -207 49 -19 c59 -22 121
-87 138 -145 47 -155 -63 -305 -223 -305 -159 0 -270 150 -223 304 23 78 118
158 188 159 20 0 73 49 238 220 l213 220 -126 122 c-310 300 -654 703 -942
1106 l-31 43 -242 -161 -243 -162 44 -20 c109 -48 166 -157 139 -268 -17 -70
-58 -122 -121 -154 -204 -101 -411 103 -315 310 29 62 75 100 153 123 77 24
568 345 559 366 -3 8 -36 61 -74 117 -212 317 -425 704 -598 1085 -42 92 -77
169 -79 171 -3 4 -539 -194 -564 -207 -11 -7 -10 -10 8 -16 36 -11 102 -76
122 -120 28 -60 25 -140 -7 -204 -71 -141 -252 -170 -368 -58 -86 82 -96 213
-23 309 35 46 106 87 150 88 27 0 644 224 660 239 4 4 -24 89 -63 188 -146
380 -270 793 -355 1186 -17 76 -18 78 -44 73 -52 -12 -560 -106 -566 -106 -4
0 14 -15 41 -32 104 -71 134 -208 68 -314 -18 -30 -48 -60 -78 -79 -43 -26
-59 -30 -121 -30 -62 0 -78 4 -121 30 -30 19 -60 49 -79 79 -26 43 -30 59 -30
120 0 60 4 79 28 119 32 54 100 103 156 113 78 12 687 125 705 131 14 4 17 11
12 37 -64 315 -116 743 -136 1125 -5 101 -12 186 -14 189 -3 2 -116 1 -251 -3
l-246 -7 41 -35 c72 -62 101 -146 80 -233 -17 -70 -58 -122 -121 -154 -159
-79 -338 29 -339 204 0 70 35 148 83 185 63 47 108 54 442 67 l312 12 6 300
c9 394 34 696 87 1050 11 71 18 131 16 133 -2 3 -98 20 -213 38 -114 19 -220
37 -235 39 l-28 5 30 -40 c96 -134 33 -318 -124 -364 -50 -15 -68 -16 -111 -6
-183 41 -249 270 -114 398 43 40 97 63 149 63 23 0 179 -23 347 -50 168 -28
307 -49 308 -48 2 2 13 55 24 118 71 377 196 833 321 1174 27 76 50 139 50
141 0 4 -355 145 -365 145 -3 0 1 -13 9 -28 23 -45 29 -98 16 -152 -17 -70
-58 -122 -121 -154 -204 -101 -411 103 -315 311 29 62 85 106 156 123 62 15
107 7 180 -30 61 -32 428 -180 445 -180 6 0 17 17 24 38 34 94 161 384 242
552 109 225 211 413 341 628 54 90 98 167 98 170 0 4 -65 46 -145 94 l-146 88
7 -35 c9 -48 -12 -127 -46 -173 -17 -23 -50 -50 -81 -66 -204 -101 -411 103
-315 311 29 62 85 106 156 123 86 21 171 -8 231 -79 28 -32 295 -205 351 -226
10 -4 39 32 99 122 109 166 348 484 485 647 60 71 117 140 127 153 l19 23
-5611 0 -5611 0 0 -7010z"/>
<path d="M11264 14011 l38 -6 -119 -140 c-130 -154 -283 -349 -385 -490 -111
-155 -210 -306 -204 -313 6 -6 1318 -81 1324 -76 2 1 -62 229 -142 505 -125
434 -150 531 -133 508 2 -2 68 -229 147 -504 78 -275 147 -504 151 -509 5 -5
11 -8 13 -5 2 2 -63 233 -145 513 -82 280 -147 511 -144 514 6 7 -2 35 161
-523 80 -275 147 -501 148 -502 2 -2 880 -53 913 -53 8 0 -222 239 -511 532
-304 308 -524 538 -522 545 4 10 -57 13 -312 12 -174 -1 -300 -5 -278 -8z"/>
<path d="M11878 14013 c8 -3 253 -234 545 -513 348 -332 533 -502 535 -491 4
24 -107 914 -116 922 -4 4 -61 22 -127 40 -65 18 -114 34 -107 37 6 2 62 -10
122 -27 127 -36 126 -35 111 -18 -6 8 -36 19 -66 26 -30 7 -55 17 -55 22 0 5
-171 9 -427 8 -236 0 -422 -3 -415 -6z"/>
<path d="M12779 14004 c41 -12 56 -12 61 -3 5 8 11 6 19 -7 10 -18 10 -18 11
1 1 19 2 18 12 -3 7 -14 26 -26 52 -33 138 -37 883 -240 894 -244 17 -6 16 -4
-100 153 -54 73 -96 137 -93 142 4 6 -163 10 -452 9 -421 -1 -454 -2 -404 -15z"/>
<path d="M13662 14011 c2 -4 48 -69 103 -145 62 -85 102 -131 106 -124 4 7 17
70 30 141 12 70 26 127 31 127 5 0 6 -10 3 -22 -26 -110 -53 -284 -45 -292 6
-6 11 -4 14 5 6 19 56 294 56 308 0 8 -47 11 -151 11 -83 0 -149 -4 -147 -9z"/>
<path d="M13973 14001 c-1 -10 -13 -80 -28 -156 -14 -75 -25 -139 -23 -140 2
-2 50 26 108 62 58 36 175 104 259 152 147 82 159 86 230 92 42 3 -64 6 -234
7 -297 2 -311 1 -312 -17z"/>
<path d="M14598 14012 c-1 -4 -82 -50 -178 -101 -203 -109 -471 -271 -470
-286 0 -5 231 -324 513 -709 281 -384 515 -703 518 -708 4 -5 62 22 130 62
139 80 302 162 441 220 51 21 94 43 96 48 1 5 -119 336 -268 736 -148 399
-270 728 -270 731 0 3 6 5 13 5 9 0 31 -47 57 -117 68 -183 67 -182 89 -176
18 5 15 14 -35 136 -55 135 -63 162 -42 155 7 -3 140 -324 297 -714 156 -390
286 -711 287 -712 1 -2 51 13 111 32 127 43 388 108 523 131 52 9 95 17 96 18
1 1 -40 274 -92 607 -51 333 -93 613 -94 623 0 9 6 17 13 17 10 0 38 -162 106
-612 52 -337 97 -617 101 -621 4 -4 76 0 161 9 87 9 248 17 371 18 186 1 218
3 218 16 0 8 18 267 40 575 22 308 40 572 40 588 0 16 5 27 14 27 13 0 26 -84
26 -174 0 -72 11 -30 18 69 5 65 11 100 20 103 17 5 16 -32 -13 -662 -13 -296
-22 -543 -19 -547 3 -5 22 -9 43 -9 111 0 530 -74 699 -124 l83 -24 9 21 c6
12 107 301 225 642 260 748 244 705 262 705 10 0 13 -6 9 -16 -4 -9 -110 -312
-235 -673 -126 -361 -232 -663 -236 -672 -4 -12 8 -19 52 -33 137 -42 340
-124 496 -199 92 -44 169 -78 171 -76 11 14 885 1498 888 1509 2 7 -48 40
-122 80 -69 37 -130 73 -137 79 -14 13 -5019 16 -5025 3z"/>
<path d="M19808 13985 c34 -19 65 -35 68 -35 4 0 4 11 2 25 -3 14 -2 28 2 30
4 3 10 -13 14 -35 9 -54 28 -52 21 3 l-5 42 13 -39 14 -40 18 32 c11 18 25 32
32 32 17 0 17 -4 -7 -50 -22 -44 -24 -50 -11 -50 5 0 21 25 37 55 16 30 32 55
36 55 18 0 17 -24 -2 -55 -15 -25 -18 -35 -8 -35 7 1 114 23 238 50 l225 48
-375 1 -375 1 63 -35z"/>
<path d="M20498 14011 c-1 -5 -104 -30 -228 -55 -210 -44 -287 -64 -250 -65 8
-1 140 26 293 59 266 57 317 66 305 55 -2 -3 -133 -32 -289 -65 -156 -33 -290
-63 -298 -65 -7 -3 33 -33 90 -68 297 -180 594 -399 842 -620 43 -38 79 -68
81 -66 1 2 -7 195 -20 429 -27 509 -26 460 -16 460 4 0 18 -204 31 -452 12
-249 25 -455 27 -457 7 -7 4 115 -11 444 -15 334 -18 472 -10 464 2 -3 13
-205 24 -448 11 -244 21 -445 24 -447 3 -3 734 670 945 869 22 21 35 28 42 21
7 -7 -143 -152 -468 -455 -264 -244 -478 -445 -477 -447 5 -6 970 100 976 106
4 4 61 178 128 387 143 447 130 409 137 403 4 -4 -213 -696 -243 -775 -3 -7 2
-13 10 -13 16 0 20 11 188 540 29 91 54 160 56 154 2 -6 -45 -165 -106 -354
l-109 -342 42 6 c93 12 181 16 160 7 -12 -5 -62 -12 -113 -16 -50 -4 -91 -12
-91 -17 0 -6 10 -8 23 -5 12 3 60 8 107 11 105 7 55 -9 -62 -19 l-78 -7 -64
-202 c-77 -240 -211 -661 -221 -695 -6 -19 45 11 240 143 136 92 253 170 260
173 9 3 13 -7 13 -31 0 -35 -4 -38 -235 -203 l-235 -168 183 -13 c101 -6 209
-15 239 -19 49 -6 52 -7 25 -14 l-30 -7 29 -1 c16 0 27 -4 23 -7 -3 -4 -112 1
-240 11 -129 10 -240 16 -246 14 -5 -2 15 -40 45 -84 96 -139 244 -393 351
-600 l103 -200 0 1378 0 1377 -949 0 c-550 0 -951 -4 -953 -9z"/>
<path d="M12890 13947 c0 -12 966 -284 976 -275 13 13 -53 34 -451 142 -236
65 -451 124 -477 131 -36 11 -48 11 -48 2z"/>
<path d="M12866 13908 c2 -13 29 -228 59 -478 30 -250 57 -461 60 -469 18 -48
9 49 -45 477 -33 264 -60 483 -60 486 0 3 -4 6 -9 6 -4 0 -7 -10 -5 -22z"/>
<path d="M12953 13448 c32 -260 61 -475 63 -477 2 -2 48 39 102 91 180 172
408 357 711 576 23 17 15 20 -440 146 -255 71 -471 131 -480 133 -13 4 -7 -63
44 -469z"/>
<path d="M19533 13044 l-431 -775 31 -16 c101 -51 385 -252 520 -367 l67 -57
643 597 c353 328 647 601 652 606 11 10 12 9 -192 184 -242 206 -629 479 -839
592 -18 10 -51 -47 -451 -764z"/>
<path d="M13769 13508 c-228 -163 -396 -302 -648 -535 l-74 -68 642 -613 642
-613 92 84 c127 117 302 255 429 340 59 40 107 75 108 79 0 6 -1019 1400
-1039 1421 -5 4 -73 -38 -152 -95z"/>
<path d="M21583 13107 l-472 -51 158 -162 c165 -169 322 -349 455 -522 44 -56
82 -102 85 -102 3 0 65 183 136 406 174 542 158 484 132 483 -12 -1 -234 -24
-494 -52z"/>
<path d="M22005 12823 c-186 -579 -185 -577 -175 -587 5 -5 12 -8 14 -5 5 5
296 914 296 923 0 4 -6 6 -13 6 -9 0 -52 -119 -122 -337z"/>
<path d="M10570 13031 c0 -5 37 -12 83 -15 176 -14 1271 -65 1275 -61 3 3 3 7
1 9 -4 4 -1274 76 -1331 76 -16 0 -28 -4 -28 -9z"/>
<path d="M20449 12469 c-327 -303 -618 -575 -648 -604 l-53 -53 159 -158 c137
-138 310 -332 379 -428 13 -17 27 -27 35 -23 29 11 1443 974 1446 984 5 15
-194 271 -335 431 -66 75 -181 197 -254 270 l-134 133 -595 -552z"/>
<path d="M10542 12992 c15 -39 623 -1132 630 -1132 4 0 -8 28 -27 63 -19 34
-160 290 -312 569 -153 279 -282 508 -286 508 -5 0 -7 -4 -5 -8z"/>
<path d="M10620 12997 c3 -3 358 -217 789 -477 504 -303 782 -465 779 -453 -3
10 -61 209 -128 443 l-123 426 -566 28 c-311 15 -609 30 -661 33 -52 3 -93 3
-90 0z"/>
<path d="M10598 12948 c11 -18 149 -269 307 -558 158 -289 288 -526 290 -528
2 -3 919 143 964 154 19 4 -137 101 -774 484 -438 264 -799 480 -802 480 -2 0
4 -15 15 -32z"/>
<path d="M10418 12793 c-132 -221 -252 -448 -353 -663 -88 -187 -207 -470
-203 -480 2 -5 1198 184 1271 201 14 3 -38 105 -290 562 -168 306 -310 557
-313 557 -4 0 -54 -80 -112 -177z"/>
<path d="M12077 12498 c111 -386 145 -489 159 -476 8 8 -262 908 -272 908 -7
0 41 -181 113 -432z"/>
<path d="M11994 12913 c3 -10 59 -205 126 -433 67 -228 123 -421 126 -429 2
-7 50 51 110 135 164 230 358 468 512 626 36 37 64 69 61 71 -3 3 -888 48
-927 47 -8 0 -11 -7 -8 -17z"/>
<path d="M12874 12717 c-130 -141 -245 -280 -351 -419 -87 -115 -224 -310
-221 -314 2 -1 344 -207 760 -457 l758 -455 62 85 c79 111 181 236 280 344
l78 87 -621 626 c-342 344 -624 626 -628 626 -3 0 -56 -55 -117 -123z"/>
<path d="M16935 12734 c-202 -14 -336 -28 -341 -36 -3 -5 129 -306 293 -670
164 -364 299 -655 300 -647 10 66 94 1341 89 1347 -8 7 -255 12 -341 6z"/>
<path d="M17320 12687 c0 -24 3 -86 7 -138 l7 -94 13 45 c10 36 11 38 7 10
-12 -80 -15 -218 -6 -255 9 -35 10 -24 13 75 2 63 4 151 4 195 1 44 5 108 9
143 l8 62 -31 0 c-30 0 -31 -2 -31 -43z"/>
<path d="M17406 12666 c-9 -97 -58 -1255 -55 -1300 1 -23 -1 -49 -5 -59 -11
-24 1 -34 18 -16 8 8 210 298 449 646 291 423 430 633 421 637 -8 3 -84 -98
-218 -292 -557 -808 -650 -941 -654 -938 -4 5 29 53 537 790 167 241 299 442
294 446 -25 25 -434 109 -628 130 -60 6 -120 12 -132 14 -20 3 -22 -2 -27 -58z"/>
<path d="M16522 12692 c-18 -12 -196 -1479 -183 -1507 7 -16 10 -17 15 -5 3 8
44 337 91 730 94 792 93 786 104 774 5 -5 131 -288 281 -629 150 -341 289
-654 308 -695 34 -72 35 -74 41 -45 4 18 1 40 -7 55 -7 14 -145 318 -306 675
-300 666 -304 673 -344 647z"/>
<path d="M13237 12655 c45 -58 80 -88 92 -81 6 4 9 1 5 -7 -3 -9 14 -31 45
-57 28 -24 49 -46 46 -49 -8 -7 187 -201 196 -196 4 3 32 -26 62 -63 31 -37
64 -76 75 -85 18 -16 20 -16 35 1 16 17 12 22 -78 96 -52 43 -93 81 -90 85 2
4 -32 43 -77 87 -45 43 -71 64 -59 47 12 -18 44 -51 71 -74 28 -24 46 -47 43
-54 -5 -15 -157 131 -158 152 0 20 -109 136 -176 188 l-64 50 32 -40z"/>
<path d="M16455 12683 c-11 -2 -67 -13 -125 -24 -127 -24 -257 -58 -408 -105
-92 -28 -113 -38 -110 -53 2 -9 116 -297 253 -639 165 -411 252 -616 257 -605
3 10 43 326 88 703 44 377 83 695 86 708 4 22 0 24 -41 15z"/>
<path d="M16461 11947 c-46 -386 -86 -716 -88 -734 l-5 -31 107 28 c170 46
336 71 513 77 144 5 162 8 157 22 -23 60 -591 1341 -595 1341 -3 0 -43 -316
-89 -703z"/>
<path d="M18259 12558 c-6 -18 -54 -1515 -48 -1522 11 -13 17 86 44 784 28
729 29 740 15 740 -5 0 -10 -1 -11 -2z"/>
<path d="M18296 12528 c-7 -34 -59 -1424 -54 -1438 2 -7 36 41 75 106 275 464
625 1057 629 1069 6 15 -92 68 -276 148 -105 46 -346 137 -362 137 -4 0 -10
-10 -12 -22z"/>
<path d="M17807 11909 c-235 -342 -426 -624 -424 -626 2 -2 48 -10 101 -18
189 -29 428 -97 610 -176 49 -22 91 -37 94 -35 5 6 53 1359 50 1424 l-3 52
-428 -621z"/>
<path d="M15553 12415 c-211 -91 -503 -250 -486 -265 4 -4 252 -231 551 -504
299 -274 545 -496 547 -494 3 3 -479 1306 -486 1312 -2 2 -59 -20 -126 -49z"/>
<path d="M18977 12247 c-3 -6 -25 -60 -50 -119 -25 -60 -45 -108 -43 -108 1 0
19 23 40 50 21 28 41 49 43 46 2 -2 -21 -37 -53 -77 -31 -41 -60 -83 -64 -94
-5 -11 -29 -68 -53 -127 -25 -60 -44 -108 -43 -108 2 0 45 75 96 168 51 92
104 187 118 211 15 25 21 41 14 37 -20 -12 -14 4 16 43 45 57 45 59 13 75 -22
12 -30 13 -34 3z"/>
<path d="M19063 12198 c-25 -40 -671 -1203 -669 -1206 5 -5 1249 794 1250 803
2 16 -209 179 -359 279 -197 131 -212 139 -222 124z"/>
<path d="M18845 12032 c-44 -74 -93 -159 -108 -186 l-28 -51 28 34 c78 97 91
99 20 4 -21 -29 -44 -51 -50 -50 -7 1 -11 -4 -9 -11 1 -8 -12 -31 -29 -53 -17
-22 -30 -41 -28 -43 7 -6 68 -36 74 -36 3 0 5 6 5 13 0 7 22 66 50 131 27 65
47 122 44 128 -3 5 1 17 11 28 16 17 108 220 103 226 -2 1 -39 -59 -83 -134z"/>
<path d="M15040 12143 c0 -5 230 -220 511 -478 613 -563 606 -558 620 -553 9
3 -1100 1028 -1122 1036 -5 2 -9 0 -9 -5z"/>
<path d="M15004 12122 c-8 -5 27 -141 117 -452 71 -245 165 -573 210 -730 79
-273 92 -311 104 -298 4 4 -363 1307 -413 1465 -4 13 -12 19 -18 15z"/>
<path d="M15884 12115 c3 -11 22 -86 42 -167 20 -82 41 -148 46 -148 5 0 24 7
43 15 l35 14 -36 65 c-19 36 -33 70 -29 76 4 6 2 9 -4 8 -6 -2 -32 33 -57 77
-25 44 -43 71 -40 60z"/>
<path d="M13802 12108 c-19 -19 -15 -24 48 -73 33 -26 58 -49 56 -53 -2 -4 59
-72 136 -152 78 -80 134 -136 127 -126 -40 57 -173 201 -213 233 -26 20 -44
38 -41 41 2 3 11 0 18 -6 8 -7 16 -9 19 -7 3 3 18 -9 34 -27 16 -18 69 -64
117 -102 48 -38 85 -71 82 -74 -2 -2 -26 14 -53 37 -28 22 -53 41 -56 41 -4 0
36 -49 89 -110 53 -60 100 -110 104 -110 4 0 16 9 25 19 16 18 15 21 -43 66
-33 26 -59 51 -56 55 2 3 -71 78 -162 166 -91 87 -161 150 -155 139 5 -11 22
-31 36 -44 14 -14 26 -29 26 -35 0 -6 -12 3 -27 19 -99 113 -100 114 -111 103z"/>
<path d="M15034 12103 c3 -10 96 -333 206 -718 110 -385 203 -706 205 -713 6
-15 4 -16 126 83 122 99 285 203 431 273 75 37 137 70 137 74 1 8 -1096 1018
-1105 1018 -3 0 -3 -8 0 -17z"/>
<path d="M21108 11606 c-394 -281 -717 -514 -717 -518 -1 -4 28 -51 63 -105
73 -112 233 -397 242 -431 5 -16 11 -21 23 -17 111 40 1611 693 1611 701 0 18
-169 346 -249 482 -71 122 -208 337 -240 378 -17 21 -25 16 -733 -490z"/>
<path d="M14839 12011 c-133 -95 -349 -273 -414 -340 l-39 -41 64 -64 c231
-226 953 -908 949 -896 -3 8 -97 333 -210 723 -112 390 -209 707 -215 707 -6
0 -67 -40 -135 -89z"/>
<path d="M11697 11905 c-263 -40 -480 -75 -481 -77 -4 -5 467 -858 473 -858 4
0 28 53 55 118 107 256 266 565 408 790 32 51 58 95 58 98 0 7 -13 5 -513 -71z"/>
<path d="M12223 11862 c-196 -314 -485 -904 -457 -932 5 -5 367 -137 804 -294
437 -156 808 -289 823 -295 27 -11 28 -10 54 52 77 177 197 404 301 566 29 46
50 87 45 92 -8 7 -1447 874 -1489 897 -19 10 -25 3 -81 -86z"/>
<path d="M10485 11723 c-346 -52 -632 -97 -634 -99 -2 -2 -2 -6 1 -9 9 -10
1761 -636 1769 -633 4 2 -95 190 -220 418 -215 391 -230 415 -257 417 -16 1
-312 -41 -659 -94z"/>
<path d="M19015 11371 c-351 -225 -641 -414 -643 -420 -2 -6 0 -11 5 -11 4 0
100 58 213 130 113 71 406 257 651 412 246 156 445 286 442 291 -2 4 -10 7
-16 7 -7 0 -300 -184 -652 -409z"/>
<path d="M19370 11065 c-179 -377 -325 -691 -325 -698 0 -54 65 73 345 671
176 376 321 688 323 694 1 6 -2 12 -8 14 -5 2 -156 -304 -335 -681z"/>
<path d="M19079 11367 c-322 -205 -607 -386 -633 -403 l-48 -32 78 -52 c172
-115 378 -296 489 -429 33 -39 62 -68 67 -63 4 4 144 295 311 647 167 352 311
655 321 673 9 17 13 32 9 31 -5 0 -271 -168 -594 -372z"/>
<path d="M19460 11158 c-145 -310 -288 -614 -317 -676 -29 -62 -47 -110 -40
-105 34 21 1133 766 1140 773 21 20 -469 570 -508 570 -6 0 -130 -253 -275
-562z"/>
<path d="M18570 11529 c-29 -72 -53 -138 -54 -147 -1 -9 -9 -28 -18 -42 -14
-22 -40 -83 -120 -285 -11 -27 -15 -45 -10 -40 5 6 71 123 147 260 76 138 140
254 143 259 3 5 0 6 -6 2 -21 -13 -13 5 23 48 l35 43 -36 16 c-19 9 -39 17
-43 17 -5 0 -32 -59 -61 -131z"/>
<path d="M17277 11620 c-9 -34 -57 -300 -57 -317 0 -9 14 -13 45 -13 l45 0 -1
43 c-2 97 -26 311 -32 287z"/>
<path d="M14340 11585 c-13 -14 -22 -27 -19 -28 40 -34 190 -147 195 -147 4 0
-10 20 -31 46 -20 25 -35 47 -33 50 3 2 33 -32 68 -75 34 -44 73 -87 86 -96
14 -9 22 -19 20 -24 -3 -4 27 -47 65 -95 39 -48 69 -89 67 -92 -3 -2 -44 46
-93 107 -80 100 -148 165 -260 244 -22 16 47 -60 154 -168 107 -108 198 -194
202 -191 4 2 22 -14 39 -37 l33 -40 28 27 c16 15 26 31 23 35 -2 4 -61 52
-130 105 -68 53 -122 99 -120 101 3 3 38 -21 78 -53 138 -108 132 -102 -96
115 -87 83 -162 148 -167 146 -4 -3 -25 17 -47 45 l-39 49 -23 -24z"/>
<path d="M9891 11544 c14 -16 65 -73 113 -126 57 -63 85 -102 80 -110 -4 -7
-3 -10 1 -5 5 4 28 -12 52 -35 45 -44 60 -76 21 -42 l-23 19 19 -23 c11 -12
22 -20 24 -17 7 7 92 -76 92 -89 0 -5 -15 5 -33 22 -18 18 -36 30 -39 26 -3
-3 -86 84 -183 193 -97 109 -180 199 -184 201 -19 6 -172 -465 -253 -777 -45
-173 -130 -562 -124 -568 2 -2 1112 341 1215 375 23 8 18 15 -103 151 -71 78
-126 144 -123 147 2 3 63 -60 133 -139 71 -80 131 -143 133 -141 2 1 -56 69
-129 149 -73 80 -135 143 -138 140 -7 -7 -82 65 -82 79 0 6 19 -8 43 -29 l42
-40 -39 42 c-22 24 -42 40 -45 38 -6 -7 -81 66 -81 79 0 5 17 -6 38 -25 l37
-34 -34 37 c-19 21 -37 35 -40 33 -6 -7 -81 66 -81 79 0 5 15 -5 33 -22 18
-18 36 -30 39 -27 3 4 106 -105 229 -242 122 -136 226 -249 230 -251 4 -2 146
40 316 93 169 53 368 115 441 137 73 23 129 45 125 49 -4 4 -210 86 -458 182
-247 96 -632 246 -855 332 -223 87 -412 160 -420 163 -9 3 -4 -7 11 -24z"/>
<path d="M18440 11347 c-62 -105 -113 -198 -113 -207 0 -8 -18 -37 -39 -63
-21 -27 -38 -52 -38 -55 0 -4 18 -17 40 -30 35 -20 41 -21 46 -7 3 8 10 12 15
9 5 -3 6 1 4 8 -3 7 17 69 45 137 27 69 48 126 46 128 -2 2 -27 -26 -56 -62
-47 -60 -72 -83 -54 -52 26 44 108 136 116 130 7 -4 8 -1 4 6 -5 7 -1 20 8 30
16 17 99 212 93 217 -2 2 -54 -83 -117 -189z"/>
<path d="M14234 11478 c-124 -129 -340 -406 -327 -419 6 -5 1244 -463 1343
-497 8 -2 -203 214 -470 482 -267 267 -487 486 -490 486 -3 0 -28 -24 -56 -52z"/>
<path d="M16153 11420 c3 -14 18 -83 33 -155 15 -71 28 -132 30 -134 5 -6 94
32 94 41 0 10 -138 248 -153 263 -6 7 -8 1 -4 -15z"/>
<path d="M16825 11208 c-184 -20 -461 -89 -452 -112 3 -6 90 -222 193 -480
l188 -468 31 7 c103 22 189 34 247 35 62 0 68 2 72 23 3 12 18 231 36 487 17
256 33 477 35 493 l5 27 -138 -1 c-75 -1 -173 -6 -217 -11z"/>
<path d="M17336 11109 c-3 -57 -13 -268 -21 -469 -8 -201 -17 -386 -18 -411
l-4 -46 83 -17 c45 -9 122 -30 171 -47 48 -17 93 -31 100 -32 9 -2 451 728
524 864 9 18 2 24 -75 60 -203 95 -474 171 -687 194 l-66 7 -7 -103z"/>
<path d="M21585 10874 c-412 -177 -776 -334 -807 -347 l-57 -25 41 -93 c52
-122 119 -301 152 -411 15 -49 30 -88 34 -88 4 0 322 74 708 165 386 91 706
165 712 165 7 0 12 -6 12 -12 0 -8 -39 -22 -100 -36 -91 -21 -114 -34 -95 -54
4 -3 47 5 98 18 109 28 107 28 107 11 0 -9 -222 -71 -697 -196 -384 -101 -702
-187 -707 -192 -6 -5 -1 -47 12 -106 28 -128 59 -318 68 -415 l7 -78 41 0 c38
0 1086 63 1219 74 43 3 57 1 57 -9 0 -19 -14 -20 -691 -61 l-615 -38 0 -278
c1 -271 2 -279 21 -283 21 -4 1250 -125 1273 -125 6 0 12 -7 12 -16 0 -15 -8
-16 -60 -11 -55 6 -60 5 -60 -13 0 -14 7 -20 24 -20 44 0 86 -12 86 -26 0 -10
-12 -12 -47 -8 -27 3 -298 22 -603 44 -305 22 -578 42 -605 45 l-51 5 -17
-138 c-21 -165 -67 -397 -108 -546 -16 -60 -28 -110 -27 -111 2 -1 165 -51
363 -110 198 -59 493 -146 655 -195 162 -48 328 -98 368 -109 48 -15 72 -27
72 -37 0 -10 -6 -13 -17 -10 -72 23 -1435 428 -1445 430 -5 0 -25 -48 -47
-109 -46 -132 -112 -294 -175 -429 -26 -54 -45 -100 -44 -101 2 -1 347 -197
768 -434 700 -394 766 -429 778 -413 8 9 53 96 100 192 l87 175 3 -72 c3 -69
1 -75 -53 -182 -30 -61 -55 -113 -55 -117 0 -6 56 1 93 12 9 3 17 1 17 -4 0
-5 -21 -13 -46 -17 -26 -3 -56 -11 -68 -16 -19 -9 -19 -9 4 -5 69 13 114 17
100 8 -8 -5 -39 -13 -68 -17 -28 -4 -50 -11 -47 -15 3 -5 32 -24 65 -42 33
-18 60 -38 60 -45 0 -19 -6 -17 -77 22 -35 19 -68 35 -73 35 -25 0 -4 -18 56
-49 36 -19 72 -40 80 -48 30 -31 11 -32 -46 -3 -33 16 -62 30 -65 30 -3 0 24
-59 61 -131 36 -72 63 -133 60 -136 -3 -3 -30 46 -61 108 -62 124 -104 193
-111 186 -3 -2 36 -84 87 -181 50 -98 89 -179 86 -182 -3 -3 -45 71 -94 165
-48 94 -90 171 -93 171 -3 0 -36 -53 -74 -118 -84 -142 -242 -381 -332 -500
-63 -83 -64 -87 -42 -93 13 -4 160 -15 328 -24 168 -10 307 -19 309 -21 13
-12 -35 -11 -337 8 -233 15 -336 18 -343 11 -15 -15 31 -19 361 -38 273 -16
327 -21 317 -31 -2 -3 -149 5 -326 16 -177 12 -326 20 -330 18 -5 -2 140 -118
322 -258 182 -140 332 -261 335 -267 2 -7 -2 -13 -8 -13 -6 0 -163 117 -348
260 -184 143 -337 259 -338 257 -3 -3 176 -920 180 -924 2 -2 118 -22 259 -44
141 -23 257 -46 257 -51 0 -4 -10 -6 -22 -3 -36 8 -456 75 -473 75 -8 0 -15
-4 -15 -8 0 -5 114 -25 253 -46 138 -21 254 -40 256 -42 13 -12 -26 -8 -254
27 -137 21 -250 37 -250 36 -1 -2 212 -1084 251 -1277 l10 -44 89 78 c50 44
105 93 123 110 l32 30 0 -47 0 -47 -109 -96 -110 -97 32 -37 c18 -20 67 -76
110 -123 48 -52 77 -93 75 -103 -2 -12 -39 22 -122 113 l-119 131 -101 -82
c-152 -125 -411 -315 -596 -438 -91 -61 -165 -113 -165 -117 0 -3 73 -122 162
-263 157 -247 164 -256 200 -263 55 -10 86 -29 131 -80 169 -192 -57 -473
-286 -356 -78 40 -122 115 -122 208 0 101 67 194 160 222 22 6 40 14 40 17 0
3 -301 483 -314 501 -1 1 -51 -27 -111 -63 -255 -153 -565 -315 -822 -429 -73
-33 -133 -64 -132 -70 0 -5 51 -122 112 -260 l112 -249 39 -8 c87 -18 156 -89
177 -182 36 -161 -116 -313 -276 -277 -144 32 -227 194 -166 326 24 53 89 111
143 126 24 7 45 14 46 15 4 3 -207 484 -217 496 -4 4 -85 -24 -181 -62 -96
-38 -274 -102 -395 -141 -121 -40 -222 -74 -224 -76 -2 -1 -1 -14 3 -28 6 -25
7 -25 117 -25 79 0 111 -3 114 -13 2 -6 5 -63 8 -124 l3 -113 -83 0 c-46 0
-83 -2 -83 -5 0 -3 58 -223 130 -490 72 -266 130 -486 130 -490 0 -3 -60 -5
-132 -5 l-133 1 -175 139 -175 138 -30 -28 c-49 -45 -94 -63 -160 -63 -176 0
-288 186 -206 343 12 23 21 43 19 45 -2 1 -122 95 -266 209 l-264 206 -221 0
c-122 0 -320 -5 -439 -12 l-218 -11 0 -199 0 -198 28 0 c66 -1 156 -69 186
-142 39 -92 3 -221 -76 -278 -51 -37 -131 -56 -180 -42 l-36 10 -4 -64 -3 -64
2593 0 2592 0 0 5554 c0 3055 -4 5556 -8 5558 -5 2 -15 21 -24 43 -8 21 -19
40 -24 41 -5 1 -346 -144 -759 -322z m805 -8585 l0 -230 -22 6 c-47 14 -103
64 -130 115 -63 120 -15 264 107 321 22 10 41 19 43 19 1 0 2 -104 2 -231z"/>
<path d="M16320 11092 c-66 -21 -82 -32 -70 -47 6 -8 9 -18 6 -23 -5 -8 106
-318 119 -330 3 -3 3 8 0 24 -2 16 -7 59 -10 96 -6 61 -11 73 -57 133 -27 37
-48 69 -45 71 2 3 23 -21 47 -51 23 -31 43 -55 44 -53 3 3 -13 181 -17 184 -1
1 -9 -1 -17 -4z"/>
<path d="M14875 11060 l-28 -29 24 -20 c13 -11 20 -20 14 -21 -5 0 80 -90 189
-199 110 -110 203 -198 207 -195 4 2 17 -10 29 -27 l22 -31 34 33 c19 18 34
36 34 39 0 4 -20 21 -45 39 -25 18 -43 36 -40 41 3 4 -63 72 -147 151 l-152
144 55 -78 c44 -64 72 -92 147 -145 50 -36 90 -67 88 -70 -3 -2 -37 19 -75 47
-39 28 -71 48 -71 45 0 -3 27 -44 61 -91 34 -46 59 -86 57 -89 -3 -2 -39 45
-81 105 -71 100 -85 115 -192 191 -63 46 -113 85 -111 88 3 2 46 -26 96 -62
49 -37 90 -64 90 -60 0 12 -109 160 -142 192 l-34 32 -29 -30z"/>
<path d="M13886 11041 c-6 -9 1413 -536 1420 -528 3 2 -1 9 -8 14 -10 8 -1059
397 -1370 509 -21 7 -40 9 -42 5z"/>
<path d="M16128 11015 c-167 -72 -361 -192 -523 -321 -55 -44 -106 -87 -112
-96 -11 -13 43 -68 360 -370 l372 -356 25 19 c70 54 153 107 231 148 l86 46
-173 465 c-96 256 -177 473 -181 482 -7 15 -15 14 -85 -17z"/>
<path d="M19776 10654 c-302 -217 -542 -394 -534 -394 11 0 1084 209 1335 261
l53 10 -39 77 c-61 122 -256 447 -265 441 0 -1 -248 -178 -550 -395z"/>
<path d="M13865 11011 c-3 -6 -2 -17 2 -24 4 -7 221 -267 481 -576 261 -309
472 -564 470 -567 -3 -2 -220 253 -483 566 -264 314 -483 570 -487 570 -10 0
-110 -164 -189 -310 -69 -128 -176 -358 -168 -363 8 -6 1304 -468 1319 -470 8
-2 20 -6 27 -10 51 -32 -40 85 -468 599 -270 324 -492 590 -494 592 -2 2 -6
-1 -10 -7z"/>
<path d="M20127 10965 c-58 -32 -133 -85 -180 -127 -112 -100 -138 -116 -47
-29 41 40 64 67 50 60 -29 -14 -263 -140 -269 -145 -2 -1 7 -18 20 -36 l22
-33 -31 29 c-29 27 -34 28 -56 17 -13 -7 -61 -51 -107 -98 l-84 -85 143 71
c82 41 162 89 186 111 43 40 64 51 50 28 -5 -7 14 3 41 23 28 20 118 85 200
144 207 149 211 153 62 70z"/>
<path d="M13917 10987 c83 -104 938 -1127 942 -1127 4 0 29 44 56 97 66 128
204 335 298 448 42 50 73 93 69 96 -7 7 -1367 509 -1377 509 -4 0 2 -10 12
-23z"/>
<path d="M18087 10446 c-136 -243 -247 -447 -247 -453 0 -5 28 -30 63 -54 34
-24 101 -81 149 -127 48 -46 91 -82 96 -80 5 1 198 131 429 288 l421 285 -32
40 c-63 81 -244 260 -339 336 -78 63 -225 168 -283 202 -6 4 -108 -169 -257
-437z"/>
<path d="M11205 10741 c-242 -76 -447 -140 -455 -142 -7 -3 -10 -8 -5 -11 15
-9 904 264 909 279 3 7 2 13 -2 12 -4 0 -205 -62 -447 -138z"/>
<path d="M11690 10763 c-51 -141 -117 -361 -159 -530 -47 -188 -86 -381 -79
-389 6 -5 1700 -284 1729 -284 12 0 18 13 23 43 13 85 76 325 121 461 25 76
42 143 38 147 -7 7 -1627 639 -1637 639 -2 0 -18 -39 -36 -87z"/>
<path d="M11208 10706 c-235 -72 -429 -134 -432 -137 -6 -5 587 -672 602 -677
4 -1 20 62 36 140 36 181 109 450 176 647 28 84 50 154 48 155 -2 2 -195 -56
-430 -128z"/>
<path d="M16443 10652 c-45 -17 -53 -31 -28 -52 9 -7 14 -19 11 -27 -3 -7 31
-109 75 -226 46 -122 78 -195 75 -172 -26 215 -26 214 -89 303 -33 45 -57 85
-55 87 3 3 26 -26 53 -65 27 -39 50 -68 52 -66 2 2 -3 54 -11 115 -9 62 -16
114 -16 116 0 8 -23 3 -67 -13z"/>
<path d="M16531 10610 c-1 -32 28 -210 35 -222 4 -7 35 -50 67 -96 32 -46 57
-85 54 -88 -2 -2 -27 29 -56 70 -28 42 -55 77 -60 80 -4 3 -2 -38 5 -92 16
-113 24 -162 28 -162 10 0 103 34 110 41 6 5 2 16 -8 28 -10 11 -15 24 -12 29
3 5 -33 103 -79 218 -46 115 -84 202 -84 194z"/>
<path d="M19520 10540 c-128 -65 -140 -74 -235 -171 -55 -56 -84 -91 -65 -78
19 14 123 88 230 164 192 136 219 156 210 154 -3 0 -66 -31 -140 -69z"/>
<path d="M10500 10521 c-102 -31 -364 -113 -582 -181 -219 -68 -396 -125 -394
-127 5 -5 1169 348 1181 358 18 17 -22 7 -205 -50z"/>
<path d="M10088 10366 c-346 -105 -628 -194 -628 -197 0 -3 48 -13 108 -22 59
-9 480 -77 936 -152 456 -74 831 -134 833 -131 4 4 -605 690 -615 692 -4 1
-289 -84 -634 -190z"/>
<path d="M19905 10377 c-390 -78 -719 -147 -730 -154 -11 -6 -16 -15 -12 -20
6 -6 1041 195 1444 280 30 6 40 12 36 23 -3 8 -10 14 -17 13 -6 0 -330 -64
-721 -142z"/>
<path d="M17824 10308 c-59 -101 -107 -191 -106 -200 0 -9 -6 -22 -14 -29 -12
-10 -7 -17 37 -41 29 -15 54 -26 57 -24 4 5 72 236 72 246 0 3 -34 -31 -76
-75 -89 -94 -78 -74 19 34 60 68 70 85 93 161 14 47 27 91 29 98 11 31 -10 -1
-111 -170z"/>
<path d="M17978 10388 l-85 -93 -36 -125 c-20 -68 -34 -126 -33 -128 2 -1 45
73 96 165 51 92 106 192 122 221 17 28 28 52 25 52 -2 0 -43 -42 -89 -92z"/>
<path d="M19878 10326 l-706 -142 45 -75 c64 -105 165 -314 203 -419 l33 -91
24 17 c38 24 1116 825 1133 840 12 12 12 14 -5 13 -11 -1 -338 -65 -727 -143z"/>
<path d="M20055 10029 c-324 -241 -592 -446 -593 -455 -3 -10 0 -14 7 -9 6 3
28 8 49 10 49 6 1341 310 1349 319 17 16 -188 566 -213 572 -5 2 -274 -195
-599 -437z m615 397 c0 -8 -1161 -849 -1165 -844 -5 4 1145 846 1158 847 4 1
7 -1 7 -3z"/>
<path d="M15290 10389 c-88 -103 -164 -207 -234 -323 -65 -109 -143 -263 -135
-270 4 -4 956 -346 963 -346 3 0 23 31 45 68 22 38 65 101 96 142 l57 73 -154
156 c-407 414 -563 571 -570 571 -4 0 -35 -32 -68 -71z"/>
<path d="M19218 10389 c-76 -38 -138 -72 -138 -77 0 -4 13 -21 28 -39 l27 -32
115 110 c63 60 113 109 110 108 -3 0 -67 -31 -142 -70z"/>
<path d="M17177 10321 c-20 -65 -37 -121 -37 -125 0 -3 30 -6 66 -6 51 0 65 3
61 13 -3 8 -15 63 -27 123 -12 60 -23 110 -24 111 -2 2 -19 -50 -39 -116z"/>
<path d="M18822 10151 c-94 -64 -170 -117 -168 -118 1 -1 46 12 100 30 l98 32
66 78 c36 42 67 75 70 72 2 -2 -21 -34 -53 -70 -32 -36 -54 -65 -49 -65 26 0
137 41 163 59 l31 22 -26 39 c-15 23 -33 38 -44 37 -9 0 -94 -53 -188 -116z"/>
<path d="M15727 10212 l-37 -37 83 -49 c45 -27 93 -57 107 -65 28 -18 30 -24
-38 82 -24 38 -42 71 -39 73 2 3 31 -38 64 -89 64 -100 50 -89 263 -215 30
-18 -1 14 -188 192 -73 70 -137 124 -142 121 -6 -4 -13 1 -16 9 -9 23 -16 20
-57 -22z"/>
<path d="M13432 10163 c-19 -35 -83 -246 -116 -381 -49 -195 -50 -202 -34
-202 50 1 1440 99 1443 102 4 3 -1264 498 -1277 498 -4 0 -11 -8 -16 -17z"/>
<path d="M13550 10177 c10 -11 426 -170 450 -172 14 -1 53 -16 87 -33 34 -18
64 -32 67 -32 10 0 28 72 20 80 -12 10 -305 82 -311 76 -3 -3 27 -21 67 -41
40 -20 70 -39 67 -41 -3 -3 -56 21 -119 54 -77 41 -142 66 -203 81 -49 12 -99
24 -110 28 -11 3 -18 3 -15 0z"/>
<path d="M18674 9864 l-411 -294 64 -127 c35 -70 66 -129 68 -131 2 -2 229 49
503 113 l500 118 -8 26 c-16 54 -69 189 -104 266 -49 106 -177 325 -190 325
-6 -1 -196 -134 -422 -296z"/>
<path d="M9527 10092 c273 -215 966 -733 977 -730 8 2 196 107 419 233 362
205 403 231 379 238 -26 7 -1796 297 -1815 297 -5 0 13 -17 40 -38z"/>
<path d="M15867 9994 c72 -76 146 -152 163 -169 29 -27 31 -28 20 -6 -7 13
-39 64 -72 114 -48 74 -69 97 -116 125 -31 19 -73 43 -92 55 -23 14 10 -27 97
-119z"/>
<path d="M16882 10105 c-40 -7 -79 -16 -87 -19 -10 -4 18 -84 117 -331 72
-179 132 -324 134 -322 2 1 12 131 23 287 11 157 23 311 26 343 l6 57 -73 -1
c-40 0 -106 -7 -146 -14z"/>
<path d="M17134 10103 c3 -10 15 -56 26 -103 12 -47 23 -86 25 -88 4 -4 75
181 75 196 0 8 -21 12 -66 12 -58 0 -65 -2 -60 -17z"/>
<path d="M9407 9918 c-49 -356 -77 -741 -77 -1060 l0 -166 560 316 c308 175
559 319 559 322 0 5 -995 773 -1008 778 -5 1 -20 -84 -34 -190z"/>
<path d="M17290 10086 c0 -13 -7 -167 -15 -341 -9 -175 -14 -319 -12 -321 4
-5 349 578 349 591 0 13 -112 53 -212 76 -108 24 -110 24 -110 -5z"/>
<path d="M16678 10052 c-27 -9 -48 -21 -47 -27 0 -5 28 -44 62 -85 l62 -75 3
70 c4 83 -4 135 -21 134 -7 0 -33 -8 -59 -17z"/>
<path d="M17221 9966 l-32 -85 21 -80 c11 -43 20 -85 19 -93 0 -7 -11 25 -24
72 -17 66 -24 81 -31 65 -29 -71 -74 -191 -74 -197 0 -3 31 -8 69 -10 l69 -3
0 35 c0 19 5 111 11 204 6 94 9 171 7 173 -1 2 -17 -35 -35 -81z"/>
<path d="M14180 9974 c-7 -19 -9 -38 -6 -41 9 -10 240 -54 254 -48 7 2 27 -2
45 -10 17 -8 91 -26 162 -40 72 -14 141 -28 155 -31 14 -3 -99 40 -250 95
-151 55 -276 98 -277 97 -2 -1 36 -24 83 -50 47 -27 83 -50 80 -53 -2 -2 -52
23 -111 56 -59 34 -111 61 -115 61 -5 0 -14 -16 -20 -36z"/>
<path d="M16488 9966 c-42 -24 -107 -65 -144 -92 l-68 -48 136 -130 c298 -288
461 -440 456 -426 -2 8 -65 178 -139 377 -96 259 -138 363 -149 363 -9 0 -50
-20 -92 -44z"/>
<path d="M15986 9944 c20 -33 55 -87 77 -121 l40 -62 46 41 c25 23 47 45 49
48 2 5 -214 138 -241 149 -5 2 8 -23 29 -55z"/>
<path d="M17620 9608 c-96 -172 -183 -328 -193 -346 -17 -29 13 -11 204 118
123 84 274 186 336 227 l112 76 -19 28 c-33 46 -236 209 -260 209 -3 0 -85
-141 -180 -312z"/>
<path d="M17667 9830 l-73 -69 -26 -113 c-15 -62 -26 -114 -25 -114 1 -1 48
81 104 182 55 101 99 184 97 184 -2 0 -37 -31 -77 -70z"/>
<path d="M18544 9851 c-93 -34 -106 -42 -161 -102 -102 -109 -139 -153 -122
-143 30 17 389 276 389 280 0 5 7 8 -106 -35z"/>
<path d="M20837 9839 c-10 -6 -25 -8 -34 -5 -16 6 -466 -94 -458 -102 2 -2 62
4 134 13 99 13 152 25 217 51 47 19 91 33 97 31 6 -2 -19 -14 -56 -27 -37 -13
-65 -25 -63 -28 4 -4 190 16 212 23 7 2 9 15 7 29 -6 28 -25 33 -56 15z"/>
<path d="M14600 9802 c36 -21 95 -54 131 -75 l66 -37 18 46 c9 25 16 46 14 48
-5 4 -271 56 -284 56 -5 0 19 -17 55 -38z"/>
<path d="M10940 9589 c-223 -127 -411 -234 -419 -238 -8 -5 -9 -11 -4 -14 10
-6 852 463 853 476 0 4 -6 7 -12 7 -7 -1 -195 -104 -418 -231z"/>
<path d="M11437 9788 c-10 -39 -36 -237 -52 -388 -9 -80 -19 -261 -22 -402
l-6 -258 49 0 c27 0 409 14 849 30 440 16 817 30 838 30 l37 0 0 118 c0 129
21 374 44 517 9 49 14 90 13 91 -2 2 -1729 284 -1738 284 -4 0 -9 -10 -12 -22z"/>
<path d="M16780 9713 c0 -54 4 -104 9 -112 8 -12 19 -10 73 9 34 13 65 25 67
26 3 3 -139 174 -145 174 -2 0 -4 -44 -4 -97z"/>
<path d="M18295 9762 c-150 -55 -146 -51 -100 -106 l38 -47 29 28 c49 46 151
163 142 162 -5 0 -54 -17 -109 -37z"/>
<path d="M10950 9555 c-217 -124 -396 -228 -398 -233 -2 -8 705 -553 728 -560
6 -2 10 54 10 152 0 196 15 407 46 655 27 219 27 211 17 210 -5 0 -186 -101
-403 -224z"/>
<path d="M20660 9754 c-47 -8 -110 -17 -140 -19 -74 -5 -314 -35 -318 -40 -8
-8 20 -75 31 -75 6 0 76 25 154 56 79 31 146 54 149 52 2 -3 -29 -18 -71 -34
-42 -16 -72 -30 -68 -31 5 -2 98 22 208 51 199 54 217 67 55 40z"/>
<path d="M14897 9753 c-3 -5 -12 -24 -20 -44 l-15 -36 96 -11 c53 -6 97 -10
99 -8 2 1 -22 20 -52 41 -31 21 -53 40 -51 42 3 3 34 -16 71 -42 61 -44 72
-48 151 -57 47 -5 90 -8 95 -6 13 4 -291 112 -318 113 -12 0 -25 3 -29 8 -4 4
-11 7 -15 7 -4 0 -10 -3 -12 -7z"/>
<path d="M20228 9586 c-355 -94 -649 -173 -651 -176 -3 -3 315 -53 706 -111
578 -85 713 -103 715 -91 6 21 -27 252 -53 383 -34 165 -35 169 -54 168 -9 -1
-307 -78 -663 -173z"/>
<path d="M17483 9660 c-46 -43 -83 -81 -83 -83 0 -6 120 -61 124 -56 8 8 53
219 47 219 -3 -1 -43 -36 -88 -80z"/>
<path d="M20160 9693 c-28 -8 -260 -106 -258 -108 4 -4 301 25 305 29 4 4 -18
69 -26 77 -3 4 -13 5 -21 2z"/>
<path d="M16315 9541 c82 -83 151 -151 153 -151 2 0 -21 45 -50 101 l-53 101
-100 50 -100 50 150 -151z"/>
<path d="M16092 9634 c-48 -56 -137 -202 -129 -210 3 -4 122 -48 264 -99 142
-51 292 -104 333 -119 l75 -27 -250 251 c-137 137 -251 250 -252 250 -1 0 -19
-21 -41 -46z"/>
<path d="M13995 9618 c-396 -27 -724 -54 -729 -59 -5 -5 -7 -11 -4 -14 3 -3
334 19 736 50 403 30 743 55 757 55 14 0 25 5 25 10 0 13 52 16 -785 -42z"/>
<path d="M17900 9529 c-96 -66 -170 -119 -165 -119 6 0 57 16 115 35 l105 35
55 72 c52 67 75 99 68 97 -2 -1 -82 -55 -178 -120z"/>
<path d="M14015 9585 c-374 -29 -693 -54 -710 -56 -23 -3 112 -70 645 -317
371 -172 678 -312 682 -312 3 0 9 39 13 88 15 190 54 400 104 561 l29 91 -42
-1 c-22 -1 -347 -25 -721 -54z"/>
<path d="M14821 9545 c-57 -176 -94 -376 -107 -577 l-7 -108 29 0 c112 2 996
38 999 42 2 2 11 51 20 109 8 58 24 138 36 179 11 40 18 74 17 75 -2 2 -214
85 -473 185 -258 100 -473 184 -477 186 -4 3 -21 -38 -37 -91z"/>
<path d="M17116 9519 c13 -63 28 -122 32 -132 6 -14 19 13 50 103 24 67 42
124 40 125 -2 2 -35 6 -74 10 l-72 7 24 -113z"/>
<path d="M16853 9598 c-29 -11 -53 -24 -53 -29 0 -11 153 -220 157 -215 2 2
-1 52 -7 112 -5 60 -10 119 -10 132 0 27 -16 27 -87 0z"/>
<path d="M19955 9576 c-97 -10 -125 -18 -239 -66 -70 -30 -124 -55 -120 -57 5
-1 126 28 269 66 269 72 275 76 90 57z"/>
<path d="M16390 9574 c0 -10 105 -204 110 -204 3 0 26 24 52 53 l46 53 -104
52 c-57 29 -104 49 -104 46z"/>
<path d="M17387 9562 c-3 -4 -14 -52 -27 -107 -12 -55 -24 -109 -27 -120 -3
-11 35 19 86 70 50 49 91 93 91 97 0 11 -118 69 -123 60z"/>
<path d="M19617 9545 c-71 -7 -131 -15 -134 -19 -3 -3 0 -26 7 -50 11 -40 15
-44 32 -35 10 5 29 7 41 4 14 -4 17 -3 10 2 -9 6 25 25 102 57 63 27 115 50
115 52 0 5 -22 4 -173 -11z"/>
<path d="M18047 9498 c-87 -30 -88 -30 -149 -109 -34 -43 -63 -77 -66 -74 -2
2 19 34 48 70 29 36 50 68 48 70 -4 4 -218 -63 -227 -72 -3 -2 17 -26 44 -53
39 -40 51 -47 63 -38 8 7 20 13 26 14 11 1 281 190 311 216 15 13 -3 9 -98
-24z"/>
<path d="M13251 9467 c-29 -146 -51 -386 -51 -547 l0 -115 689 25 c379 14 692
28 695 31 3 3 -294 144 -659 314 -366 170 -663 311 -660 313 2 3 311 -138 686
-312 375 -174 684 -314 687 -311 3 3 1 9 -4 14 -7 7 -644 304 -1291 602 l-82
38 -10 -52z"/>
<path d="M16812 9510 c3 -8 29 -80 58 -160 38 -102 61 -151 80 -166 l26 -22
-7 78 c-8 89 -3 79 -82 185 -69 92 -82 107 -75 85z"/>
<path d="M17931 9333 c-144 -103 -258 -189 -254 -190 11 -4 632 142 640 150 7
8 -99 219 -113 224 -6 2 -128 -81 -273 -184z"/>
<path d="M19165 9460 c-110 -27 -207 -51 -215 -54 -8 -3 39 -3 105 0 270 11
370 16 373 19 2 2 -2 21 -8 44 l-11 41 -85 -46 c-47 -26 -87 -44 -91 -41 -3 3
27 22 66 41 39 20 71 38 71 41 0 3 -1 5 -2 4 -2 -1 -93 -23 -203 -49z"/>
<path d="M17414 9381 c-83 -88 -92 -101 -106 -158 -9 -35 -14 -63 -11 -63 29
0 68 49 136 172 43 77 77 141 75 143 -2 1 -44 -41 -94 -94z"/>
<path d="M15569 9391 c113 -44 209 -78 213 -75 5 3 16 0 24 -7 8 -6 16 -10 17
-8 11 14 48 112 44 116 -9 8 -246 29 -241 21 3 -4 38 -31 80 -59 41 -29 72
-54 70 -56 -3 -3 -44 23 -93 58 -94 67 -114 74 -238 83 l-80 6 204 -79z"/>
<path d="M16555 9410 c-27 -27 -47 -51 -44 -54 10 -10 223 -125 226 -122 2 2
-17 40 -43 85 -25 45 -44 85 -41 87 2 3 29 -39 58 -93 53 -95 56 -98 129 -140
41 -23 76 -40 78 -38 17 17 -247 293 -269 280 -5 -4 -14 5 -21 19 -6 14 -14
26 -17 26 -4 0 -29 -22 -56 -50z"/>
<path d="M18675 9344 c-121 -29 -227 -55 -235 -58 -8 -3 46 -4 120 -3 l135 3
108 51 c59 28 107 54 107 57 0 8 15 11 -235 -50z"/>
<path d="M19510 9390 c0 -6 6 -13 13 -15 14 -6 1451 -215 1475 -215 38 0 -9
21 -69 31 -102 16 -1402 209 -1411 209 -4 0 -8 -5 -8 -10z"/>
<path d="M18945 9248 c-269 -71 -491 -131 -493 -133 -2 -2 1 -38 7 -82 6 -43
13 -103 16 -133 l6 -56 497 -48 c273 -26 505 -50 515 -52 15 -5 17 3 17 64 0
160 -46 544 -68 563 -4 3 -227 -52 -497 -123z"/>
<path d="M17670 9355 c-7 -8 -16 -12 -21 -9 -15 9 -274 -171 -287 -200 -7 -15
-12 -29 -12 -31 0 -2 34 8 76 23 73 26 78 29 146 115 39 48 73 86 75 83 3 -3
-23 -39 -57 -80 -33 -42 -59 -76 -56 -76 11 0 231 83 240 91 8 7 -69 99 -84
99 -4 0 -13 -7 -20 -15z"/>
<path d="M19523 9339 c16 -58 46 -306 53 -427 6 -116 9 -133 23 -129 9 2 321
85 693 183 372 98 675 180 673 182 -2 2 -313 48 -692 103 -378 54 -703 102
-722 106 -32 5 -34 4 -28 -18z"/>
<path d="M9910 9004 c-305 -173 -562 -319 -570 -324 -8 -5 -12 -11 -9 -15 5
-4 1129 623 1147 640 2 2 0 5 -5 8 -5 3 -258 -136 -563 -309z"/>
<path d="M10516 9301 c42 -41 742 -571 754 -571 11 0 10 5 -5 19 -44 41 -735
561 -746 561 -8 0 -9 -3 -3 -9z"/>
<path d="M9940 8984 l-554 -314 73 0 c77 0 1697 58 1741 63 25 2 -46 59 -600
484 l-105 80 -555 -313z"/>
<path d="M18750 9270 c-76 -6 -97 -13 -200 -63 -63 -31 -109 -57 -101 -57 17
0 474 120 480 126 6 5 -71 3 -179 -6z"/>
<path d="M15920 9256 c5 -4 199 -81 360 -142 74 -28 73 -28 -33 51 -43 32 -76
60 -73 62 2 3 47 -27 99 -66 51 -39 97 -71 101 -71 6 0 56 106 56 120 0 8 -89
18 -220 25 -63 3 -139 10 -245 21 -27 3 -47 3 -45 0z"/>
<path d="M18065 9201 l-199 -48 84 -6 c155 -12 162 -11 247 40 89 53 103 63
83 62 -8 0 -105 -22 -215 -48z"/>
<path d="M18233 9197 c-63 -40 -78 -54 -65 -59 21 -8 202 -10 202 -2 0 25 -34
114 -43 113 -7 0 -49 -24 -94 -52z"/>
<path d="M15869 9212 c-13 -33 -45 -187 -54 -261 l-6 -53 123 6 c68 3 258 11
423 17 165 6 301 12 302 13 1 1 -136 55 -305 121 -169 65 -344 134 -390 151
l-83 33 -10 -27z"/>
<path d="M16417 9147 c-15 -33 -26 -62 -24 -63 5 -5 217 -26 227 -22 5 1 -32
35 -83 74 l-93 72 -27 -61z"/>
<path d="M17861 9128 c2 -35 38 -113 50 -110 16 4 181 104 177 107 -2 1 -54 5
-115 9 -88 5 -113 4 -112 -6z"/>
<path d="M20285 8954 c-385 -102 -702 -188 -704 -190 -22 -21 103 8 711 171
618 164 765 207 708 204 -8 0 -330 -84 -715 -185z"/>
<path d="M17742 9076 c-51 -29 -95 -56 -99 -60 -3 -3 50 -6 120 -6 l126 0 -22
60 c-12 33 -24 60 -27 60 -3 0 -47 -24 -98 -54z"/>
<path d="M20300 8926 c-371 -100 -681 -184 -689 -187 -8 -3 302 -37 690 -75
618 -61 705 -68 711 -54 9 19 10 358 2 439 -5 47 -10 61 -23 60 -9 -1 -320
-83 -691 -183z"/>
<path d="M18047 9011 c-180 -47 -324 -87 -319 -89 13 -4 677 -70 680 -67 4 3
-20 208 -27 226 -5 14 -46 6 -334 -70z"/>
<path d="M16411 9065 c2 -2 80 -33 172 -69 197 -77 233 -78 137 -1 -60 47 -64
48 -153 56 -51 5 -107 11 -126 13 -18 3 -32 3 -30 1z"/>
<path d="M16456 8891 c-25 -5 -16 -10 70 -38 l99 -32 70 25 c109 39 103 35 80
44 -23 10 -276 11 -319 1z"/>
<path d="M17573 8888 c-24 -6 -43 -14 -43 -17 0 -3 30 -17 66 -30 l66 -23 113
23 c63 13 112 26 110 30 -4 5 -36 9 -220 24 -27 2 -69 -1 -92 -7z"/>
<path d="M16045 8878 c-93 -5 -185 -10 -202 -10 l-33 -1 0 -63 0 -63 45 -7
c25 -3 134 -3 243 0 108 4 214 7 235 8 l37 0 0 68 0 68 -31 6 c-35 7 -53 6
-294 -6z"/>
<path d="M16390 8813 l0 -68 72 -3 c59 -2 82 2 135 24 51 22 61 29 48 37 -12
6 -44 -1 -106 -23 -49 -18 -92 -30 -95 -27 -3 3 31 17 76 32 45 15 80 29 78
30 -4 4 -193 65 -202 65 -3 0 -6 -30 -6 -67z"/>
<path d="M17950 8867 c3 -2 54 -25 113 -49 l109 -45 96 19 c54 11 100 23 105
27 4 4 -80 15 -185 25 -106 10 -204 20 -218 23 -14 3 -23 3 -20 0z"/>
<path d="M15615 8829 c-55 -17 -101 -32 -103 -34 -3 -3 209 -55 223 -55 3 0 5
27 5 60 0 42 -4 60 -12 59 -7 0 -58 -14 -113 -30z"/>
<path d="M17797 8835 c-54 -13 -100 -25 -103 -28 -2 -2 42 -22 98 -44 68 -26
105 -36 109 -29 13 23 18 126 6 125 -7 -1 -56 -12 -110 -24z"/>
<path d="M17926 8822 c-3 -20 -6 -52 -6 -70 0 -27 3 -32 18 -28 9 2 55 12 102
21 47 10 89 20 94 22 8 5 -39 28 -153 73 l-49 19 -6 -37z"/>
<path d="M15240 8787 l0 -54 233 -1 232 0 -112 28 -113 28 -82 -24 c-46 -13
-87 -23 -92 -21 -5 2 26 14 70 27 l79 23 -95 23 c-52 13 -101 23 -107 24 -9 0
-13 -17 -13 -53z"/>
<path d="M14455 8790 c-154 -30 -156 -27 27 -55 54 -8 111 -15 128 -15 29 0
30 1 30 50 0 60 11 59 -185 20z"/>
<path d="M13748 8776 c-81 -12 -150 -24 -152 -27 -3 -3 74 -13 171 -22 96 -10
176 -17 178 -15 1 2 0 22 -3 46 -5 50 10 48 -194 18z"/>
<path d="M18988 8700 c-3 -60 -3 -60 22 -56 14 3 61 10 105 16 142 19 141 18
21 61 -60 21 -117 39 -127 39 -14 0 -18 -11 -21 -60z"/>
<path d="M17450 8713 c0 -11 113 -142 126 -147 47 -18 37 2 -33 70 -43 42 -69
70 -58 63 11 -7 52 -43 90 -79 l70 -67 114 -16 c63 -9 116 -16 117 -14 1 1
-77 46 -173 100 -148 83 -181 97 -214 95 -21 -1 -39 -4 -39 -5z"/>
<path d="M16021 8703 l-204 -3 7 -57 c10 -82 36 -193 46 -193 10 0 520 224
560 246 22 12 12 13 -90 11 -63 -1 -207 -3 -319 -4z"/>
<path d="M17635 8698 c22 -16 663 -378 669 -378 6 0 61 173 75 232 17 73 14
97 -11 102 -13 3 -160 14 -328 26 -168 11 -332 23 -365 26 -54 5 -58 5 -40 -8z"/>
<path d="M14988 8693 l-276 -3 4 -43 c23 -223 54 -383 106 -547 17 -52 31 -96
33 -98 2 -2 935 406 943 413 1 1 -7 40 -18 85 -10 46 -22 110 -26 142 l-7 58
-241 -2 c-132 -2 -365 -4 -518 -5z"/>
<path d="M19570 8655 l0 -45 83 1 c45 1 127 4 182 8 l100 6 -175 38 c-96 20
-178 37 -182 37 -5 0 -8 -20 -8 -45z"/>
<path d="M13758 8681 c-300 -3 -550 -9 -554 -13 -16 -16 52 -595 74 -634 5 -8
221 97 655 318 357 182 651 328 653 325 3 -3 -290 -154 -650 -337 -560 -284
-683 -350 -651 -350 18 0 1355 677 1355 686 0 13 -57 14 -882 5z"/>
<path d="M11880 8660 c-283 -4 -517 -7 -519 -8 -5 -2 6 -196 20 -352 24 -269
83 -630 103 -630 18 0 1720 320 1724 325 2 1 -8 72 -22 156 -27 159 -40 268
-51 427 l-7 92 -367 -2 c-201 -1 -598 -5 -881 -8z"/>
<path d="M9935 8639 c-297 -3 -542 -7 -545 -8 -3 0 248 -121 556 -267 l562
-265 358 266 c198 147 363 271 368 276 11 10 -405 9 -1299 -2z"/>
<path d="M13967 8316 l-659 -333 734 5 c403 2 734 6 736 7 2 1 -13 54 -32 116
-47 156 -96 413 -96 503 0 22 -5 36 -12 36 -7 -1 -309 -151 -671 -334z"/>
<path d="M18452 8574 c-6 -41 -28 -123 -47 -181 -20 -59 -32 -110 -28 -114 27
-25 886 -499 893 -493 12 14 79 177 111 272 59 171 124 490 105 509 -4 4 -206
21 -449 39 -243 18 -471 35 -507 38 l-66 6 -12 -76z"/>
<path d="M16423 8633 c-35 -2 -63 -6 -63 -9 0 -9 60 -124 66 -124 6 0 164 131
164 137 0 3 -60 2 -167 -4z"/>
<path d="M9336 8513 c10 -210 35 -508 55 -662 18 -143 76 -512 82 -517 1 -1
226 164 500 368 274 204 497 371 495 373 -2 1 -255 123 -563 270 -308 147
-563 270 -567 272 -5 2 -5 -45 -2 -104z"/>
<path d="M10920 8353 c-195 -146 -356 -268 -358 -272 -2 -5 769 -376 831 -400
6 -2 7 7 3 22 -37 150 -106 730 -106 896 0 12 -3 21 -7 20 -5 0 -168 -120
-363 -266z"/>
<path d="M16321 8606 c-7 -8 -20 -14 -29 -14 -16 1 -375 -152 -370 -157 2 -2
47 2 101 8 l97 11 81 68 c44 37 83 68 85 68 11 0 -10 -21 -71 -71 -36 -29 -63
-54 -61 -56 4 -4 248 25 253 31 7 6 -56 126 -66 126 -5 0 -14 -6 -20 -14z"/>
<path d="M19720 8600 c-47 -3 -74 -7 -60 -8 360 -28 551 -42 575 -41 17 0 -26
14 -95 30 -131 30 -219 34 -420 19z"/>
<path d="M16355 8431 c-209 -86 -388 -160 -398 -164 -17 -7 -16 -12 18 -75 32
-57 87 -136 163 -231 l19 -23 297 326 c163 179 293 326 289 325 -4 0 -179 -71
-388 -158z"/>
<path d="M19560 8555 c0 -22 1282 -878 1291 -863 5 7 5 16 1 19 -17 15 -1281
859 -1286 859 -3 0 -6 -7 -6 -15z"/>
<path d="M19620 8556 c0 -5 1226 -828 1237 -830 21 -3 120 468 139 661 6 70 6
72 -17 77 -25 5 -1296 96 -1336 96 -13 0 -23 -2 -23 -4z"/>
<path d="M17741 8463 c45 -43 85 -79 90 -81 4 -2 22 22 40 53 17 31 34 54 36
51 3 -3 -9 -29 -26 -60 -29 -49 -30 -55 -14 -60 30 -9 184 -29 188 -24 2 2
-31 39 -75 83 l-78 80 -114 17 c-62 9 -116 17 -120 18 -4 0 29 -35 73 -77z"/>
<path d="M19556 8498 c-2 -13 -14 -75 -26 -139 -27 -149 -69 -293 -130 -448
-27 -69 -47 -127 -44 -130 4 -5 1465 -110 1471 -106 3 1 -1246 839 -1258 843
-4 2 -10 -7 -13 -20z"/>
<path d="M16215 8454 c-49 -8 -110 -15 -135 -17 -133 -12 -200 -21 -200 -27 0
-5 10 -33 21 -64 15 -37 26 -53 33 -48 6 5 20 9 31 10 19 1 383 147 394 157 7
8 -47 4 -144 -11z"/>
<path d="M17871 8183 c100 -126 184 -230 185 -232 7 -8 40 27 97 104 54 73 57
80 41 92 -23 16 -490 263 -498 263 -4 0 75 -102 175 -227z"/>
<path d="M15602 8297 c-101 -45 -178 -83 -172 -85 18 -6 180 19 186 29 3 6 15
7 26 3 16 -5 218 14 218 21 0 1 -11 28 -24 60 -13 33 -26 53 -30 46 -4 -6 -12
-11 -17 -11 -6 0 -7 5 -4 10 8 13 29 21 -183 -73z"/>
<path d="M17571 8363 c23 -60 85 -193 89 -193 13 0 115 76 113 84 -1 5 -47 33
-104 64 -56 30 -100 50 -98 45z"/>
<path d="M17480 8314 c0 -27 141 -528 165 -584 15 -36 28 -66 30 -68 10 -11
235 130 235 147 0 4 -93 118 -206 252 -238 282 -224 266 -224 253z"/>
<path d="M16460 8170 c-28 -55 -47 -100 -44 -100 3 0 51 25 107 57 l101 56
-40 34 c-73 63 -68 65 -124 -47z"/>
<path d="M18320 8191 c-17 -34 -28 -61 -26 -61 2 0 48 -9 101 -20 53 -11 102
-20 108 -20 9 0 -129 151 -145 158 -4 2 -21 -24 -38 -57z"/>
<path d="M15415 8045 c-247 -102 -460 -189 -473 -195 l-22 -10 46 -91 c60
-121 140 -248 228 -367 78 -104 214 -255 226 -250 4 2 150 161 325 353 175
193 329 362 343 377 l25 27 -44 49 c-49 54 -121 159 -165 239 -16 29 -31 53
-34 53 -3 0 -207 -84 -455 -185z"/>
<path d="M16511 8020 c-112 -115 -200 -214 -196 -220 10 -16 115 -85 181 -118
55 -28 62 -29 67 -14 14 43 154 562 152 562 -1 0 -93 -94 -204 -210z"/>
<path d="M16491 8096 c-51 -29 -98 -61 -103 -70 -5 -10 -25 -52 -45 -94 l-34
-77 41 40 c49 47 244 255 239 255 -2 0 -46 -25 -98 -54z"/>
<path d="M16939 8042 c-33 -79 -145 -470 -136 -478 3 -3 173 -34 188 -34 5 0
9 135 9 300 0 233 -3 300 -12 300 -7 0 -29 -40 -49 -88z"/>
<path d="M18240 8057 c-19 -28 -57 -78 -83 -109 -48 -58 -48 -59 -30 -82 10
-13 155 -195 323 -405 l305 -380 53 52 c87 84 208 234 293 360 43 65 79 122
79 126 0 5 -177 102 -392 216 -216 114 -420 223 -453 241 l-60 33 -35 -52z"/>
<path d="M9980 7691 c-272 -203 -496 -374 -498 -381 -5 -13 -11 -17 598 435
477 354 427 315 409 315 -8 -1 -237 -167 -509 -369z"/>
<path d="M18620 8000 c29 -33 64 -69 78 -80 l25 -20 34 51 c24 34 32 54 25 61
-9 9 -167 47 -200 48 -8 0 9 -27 38 -60z"/>
<path d="M10013 7678 c-276 -205 -500 -374 -499 -376 2 -2 418 75 925 170 506
95 917 175 913 178 -7 7 -829 400 -834 400 -2 0 -229 -168 -505 -372z"/>
<path d="M16280 7979 c-47 -27 -89 -50 -95 -52 -13 -5 7 -29 56 -68 l38 -30
51 100 c27 56 47 101 43 100 -5 0 -46 -23 -93 -50z"/>
<path d="M18770 7950 c-18 -28 -30 -53 -27 -56 3 -3 65 -21 138 -39 l132 -33
-54 56 c-50 53 -34 42 51 -34 24 -22 57 -37 104 -48 38 -9 70 -15 72 -14 5 6
-259 151 -275 151 -9 0 -34 15 -55 34 -22 18 -43 33 -47 33 -4 0 -21 -23 -39
-50z"/>
<path d="M12330 7798 c-465 -88 -847 -161 -849 -163 -8 -8 104 -429 158 -593
72 -219 139 -392 153 -392 9 0 1598 698 1607 706 2 2 -24 86 -57 186 -34 101
-75 235 -91 298 -26 104 -31 115 -53 117 -12 1 -403 -71 -868 -159z"/>
<path d="M13688 7953 c-300 -3 -388 -6 -388 -16 0 -48 139 -499 165 -533 9
-13 102 25 625 256 338 150 629 278 645 285 32 14 -36 15 -1047 8z"/>
<path d="M17311 7749 l-1 -206 53 9 c28 5 53 11 54 12 2 2 -94 364 -101 381
-2 5 -5 -83 -5 -196z"/>
<path d="M14672 7858 c-68 -44 -126 -78 -128 -75 -3 2 35 30 83 61 48 32 83
56 77 54 -21 -6 -463 -202 -461 -205 6 -6 242 60 263 73 13 9 28 13 34 9 8 -5
288 60 298 69 4 5 -32 96 -38 95 -3 0 -60 -37 -128 -81z"/>
<path d="M18033 7818 l-41 -43 95 -73 c52 -40 96 -72 98 -70 5 5 -93 222 -102
225 -5 2 -27 -16 -50 -39z"/>
<path d="M18135 7785 c82 -193 69 -174 175 -255 97 -74 98 -76 174 -210 72
-128 80 -138 146 -184 65 -45 119 -94 80 -71 -8 5 -41 28 -72 52 -32 24 -58
41 -58 38 0 -4 18 -38 41 -77 22 -38 39 -72 36 -74 -3 -3 -22 26 -42 63 -21
37 -49 84 -64 103 -14 19 -26 40 -27 47 -2 15 -114 212 -124 218 -11 7 -73
-62 -65 -74 3 -7 47 -41 96 -77 50 -37 88 -69 85 -71 -3 -3 -24 9 -48 28 -67
51 -68 52 -68 46 0 -5 187 -230 241 -291 10 -11 91 55 85 70 -4 11 -565 714
-593 744 -11 11 -11 5 2 -25z"/>
<path d="M14385 7203 c-253 -333 -463 -611 -467 -617 -4 -7 -3 -18 1 -25 6 -9
155 183 471 605 254 339 464 623 467 631 3 7 1 13 -3 13 -5 0 -216 -273 -469
-607z"/>
<path d="M14170 7534 c-355 -146 -646 -267 -648 -268 -4 -5 95 -210 153 -316
65 -118 217 -360 225 -360 6 0 893 1164 913 1197 4 7 7 13 5 13 -2 -1 -293
-120 -648 -266z"/>
<path d="M14407 7169 c-252 -336 -457 -612 -455 -613 4 -4 1377 530 1385 538
3 3 -26 40 -64 83 -138 154 -249 314 -349 499 -31 57 -56 104 -57 104 -1 0
-208 -275 -460 -611z"/>
<path d="M19330 7750 c0 -5 3 -10 6 -10 20 0 1398 -100 1447 -105 46 -5 57 -3
57 9 0 18 24 16 -772 71 -695 48 -738 50 -738 35z"/>
<path d="M15938 7423 c-173 -181 -332 -348 -353 -372 l-40 -44 40 -34 c49 -43
177 -134 269 -192 103 -65 287 -154 296 -145 8 9 180 438 184 459 1 6 5 15 8
21 4 6 46 109 94 230 47 120 88 224 90 230 3 6 -14 19 -38 30 -23 10 -85 47
-136 82 -52 34 -95 62 -97 62 -1 0 -144 -147 -317 -327z"/>
<path d="M17890 7704 c-36 -25 -91 -60 -123 -77 -46 -25 -57 -36 -54 -52 3
-17 375 -924 382 -933 5 -6 188 90 276 144 105 65 249 170 249 182 0 10 -646
776 -657 779 -5 2 -37 -18 -73 -43z"/>
<path d="M19364 7723 c3 -3 279 -160 613 -348 l608 -344 52 107 c76 154 200
468 190 479 -2 2 -314 25 -693 53 -379 27 -708 51 -732 53 -24 3 -41 2 -38 0z"/>
<path d="M19290 7669 c-12 -23 -20 -42 -18 -44 5 -6 298 -113 298 -109 0 6
-245 194 -252 194 -4 0 -17 -18 -28 -41z"/>
<path d="M13998 7568 c-81 -45 -146 -84 -144 -86 3 -3 338 87 344 93 5 4 -39
75 -46 75 -4 0 -73 -37 -154 -82z"/>
<path d="M10446 7445 c-505 -96 -920 -176 -922 -178 -2 -2 282 -84 632 -182
543 -152 637 -176 648 -164 7 8 123 145 257 304 133 160 263 314 287 343 25
28 38 52 31 51 -8 -1 -427 -79 -933 -174z"/>
<path d="M11155 7278 c-318 -378 -318 -378 -314 -383 2 -2 191 -56 419 -120
228 -64 423 -118 432 -121 15 -4 14 2 -6 53 -79 196 -176 502 -232 733 -19 79
-36 145 -37 146 -1 0 -119 -138 -262 -308z"/>
<path d="M19250 7587 c0 -6 886 -1144 916 -1176 11 -13 14 -12 19 2 5 11 -127
182 -440 572 -245 307 -444 559 -442 561 2 3 204 -245 448 -550 244 -305 449
-554 454 -552 32 9 325 461 309 475 -20 18 -1208 641 -1212 636 -3 -3 -16 5
-29 17 -13 12 -23 19 -23 15z"/>
<path d="M19175 7478 c-73 -114 -152 -214 -263 -336 -46 -51 -83 -94 -81 -95
15 -11 1302 -627 1305 -624 4 3 -885 1141 -895 1145 -4 1 -34 -39 -66 -90z"/>
<path d="M15777 7464 c-10 -19 -21 -33 -26 -30 -4 3 -67 -60 -140 -139 -73
-80 -129 -145 -126 -145 11 0 164 111 167 122 2 6 12 12 21 14 9 1 53 28 97
59 45 32 83 55 86 53 2 -3 -43 -37 -100 -76 -57 -39 -106 -79 -110 -87 -3 -9
-10 -14 -14 -11 -5 3 -50 -23 -100 -58 l-91 -63 37 -36 37 -36 54 95 c29 52
55 93 58 90 2 -2 -14 -37 -37 -76 -22 -40 -39 -74 -38 -75 5 -4 309 320 309
330 0 6 7 17 14 25 12 13 8 20 -25 48 -21 17 -43 32 -47 32 -5 0 -17 -16 -26
-36z"/>
<path d="M16776 7481 c-31 -106 -56 -214 -52 -219 4 -3 67 12 141 32 l135 39
0 63 0 63 -47 6 c-27 4 -76 13 -110 20 -56 11 -63 11 -67 -4z"/>
<path d="M17395 7488 c-93 -19 -85 -9 -85 -101 l0 -82 90 -24 c50 -13 93 -22
95 -19 4 3 -53 231 -59 234 0 0 -19 -3 -41 -8z"/>
<path d="M19907 7325 c-9 -20 -17 -37 -17 -39 0 -9 332 -136 341 -131 5 4 23
-4 40 -16 32 -22 199 -92 206 -85 2 2 -24 20 -59 39 -35 19 -127 71 -205 116
-79 44 -143 78 -143 76 0 -2 36 -29 81 -60 44 -32 78 -59 76 -62 -9 -8 -177
119 -170 130 3 6 1 7 -6 3 -6 -4 -32 8 -60 28 -27 20 -53 36 -58 36 -5 0 -17
-16 -26 -35z"/>
<path d="M9494 7222 c3 -9 15 -60 26 -112 33 -152 97 -392 151 -570 83 -272
225 -656 244 -661 13 -4 845 984 837 992 -4 4 -284 86 -622 183 -338 97 -621
179 -628 181 -9 3 -11 -1 -8 -13z"/>
<path d="M12637 6905 c-445 -183 -811 -335 -814 -338 -12 -12 172 -387 292
-598 58 -101 249 -403 270 -427 3 -3 1444 945 1464 963 11 11 1 32 -62 126
-101 155 -200 329 -272 481 -33 70 -62 127 -65 127 -3 -1 -369 -151 -813 -334z"/>
<path d="M20110 7170 c99 -56 340 -181 340 -176 0 3 -21 19 -46 36 -25 18 -43
34 -41 37 9 9 107 -69 100 -79 -3 -7 -1 -8 6 -4 6 4 24 -2 40 -13 22 -16 31
-18 38 -8 25 31 24 38 -6 48 -17 6 -28 15 -25 20 3 5 -1 6 -8 4 -7 -3 -42 6
-77 20 -35 13 -68 22 -72 19 -5 -3 -22 4 -37 15 -16 11 -75 38 -133 61 -138
56 -143 57 -79 20z"/>
<path d="M16690 7166 c0 -2 -31 -122 -70 -266 -38 -144 -70 -264 -70 -266 0
-3 32 -4 72 -2 l71 3 144 258 c79 142 143 263 143 268 0 5 -64 9 -145 9 -80 0
-145 -2 -145 -4z"/>
<path d="M17310 7096 l0 -75 108 -195 107 -196 73 0 c66 0 73 2 68 18 -3 10
-35 127 -72 262 -36 134 -67 247 -70 252 -3 4 -52 8 -110 8 l-104 0 0 -74z"/>
<path d="M12867 7074 c-15 -8 -31 -13 -36 -10 -4 3 -84 -28 -177 -69 -220 -97
-216 -96 -179 -90 17 3 3 -5 -30 -16 -70 -25 -69 -25 -60 -38 4 -7 24 -2 56
14 27 14 53 24 58 21 6 -4 218 77 228 88 2 2 -3 6 -12 10 -9 3 -14 2 -11 -3 3
-4 -14 -14 -37 -21 -23 -7 -68 -25 -99 -41 -67 -34 -65 -33 -65 -15 0 8 19 19
41 26 22 7 94 39 158 71 130 65 165 77 75 25 -43 -25 -54 -35 -42 -40 23 -8
33 -7 18 2 -8 5 20 19 72 36 52 17 85 33 85 41 0 22 -13 24 -43 9z"/>
<path d="M16868 6864 l-127 -229 126 -3 c69 -1 127 -1 130 1 2 2 2 106 1 232
l-3 227 -127 -228z"/>
<path d="M14645 6810 c-379 -148 -694 -271 -700 -273 -5 -2 -7 -7 -4 -10 5 -6
1416 537 1428 548 21 22 -126 -32 -724 -265z"/>
<path d="M16296 6914 c-37 -91 -64 -170 -60 -175 3 -6 -1 -18 -10 -27 -13 -15
-46 -83 -46 -96 0 -5 77 -36 88 -36 5 0 14 21 20 48 6 26 25 95 41 155 16 59
28 107 26 107 -2 0 -27 -34 -56 -75 -29 -41 -55 -73 -57 -70 -3 2 23 42 56 89
74 103 76 108 92 175 10 44 10 55 -1 62 -8 5 -17 9 -20 9 -4 0 -37 -75 -73
-166z"/>
<path d="M17841 7053 c-19 -16 -20 -22 -10 -58 6 -22 24 -57 40 -77 33 -42 38
-59 9 -33 -11 10 -20 14 -20 9 0 -19 49 -181 64 -214 l17 -35 -5 40 c-3 22 -8
66 -12 98 -4 32 -11 60 -15 63 -5 3 -7 15 -4 27 7 32 -18 190 -31 194 -6 2
-21 -4 -33 -14z"/>
<path d="M14648 6782 c-378 -147 -688 -270 -688 -274 0 -17 214 -273 322 -383
l117 -120 24 25 c88 91 926 1020 920 1019 -5 0 -317 -120 -695 -267z"/>
<path d="M15367 7011 c-15 -23 -31 -40 -36 -38 -5 1 -87 -83 -182 -188 -95
-104 -164 -183 -154 -175 11 8 42 32 68 54 26 21 50 36 52 34 3 -3 -38 -38
-90 -79 -52 -41 -94 -76 -95 -79 0 -11 57 -39 74 -36 21 3 427 426 420 437 -2
4 6 15 18 23 l23 16 -36 36 -36 35 -26 -40z"/>
<path d="M18806 7031 c-5 -8 130 -76 934 -470 313 -153 408 -196 419 -188 11
10 11 13 0 20 -18 10 -1340 647 -1345 647 -1 0 -5 -4 -8 -9z"/>
<path d="M17905 6994 c12 -66 26 -161 30 -199 11 -101 28 -205 34 -205 16 0
101 35 101 42 0 4 -30 46 -66 94 -36 47 -63 88 -61 90 3 3 21 -18 42 -46 21
-28 39 -49 41 -47 3 3 -113 287 -122 296 -2 2 -2 -9 1 -25z"/>
<path d="M18735 6969 l-30 -31 130 -123 c71 -68 131 -122 133 -120 2 1 -18 37
-44 79 -25 43 -44 79 -41 82 2 2 30 -39 62 -93 58 -99 118 -169 210 -246 38
-33 15 1 -109 155 -87 109 -161 196 -166 195 -5 -1 -26 27 -48 63 -22 36 -46
66 -54 68 -7 1 -27 -11 -43 -29z"/>
<path d="M18841 6974 c9 -10 200 -248 424 -529 224 -280 416 -518 425 -528 16
-18 22 -14 134 94 121 116 306 320 306 336 0 8 -1229 618 -1290 641 -13 4 -12
2 1 -14z"/>
<path d="M20616 6942 l-15 -29 109 -42 c61 -23 114 -39 120 -36 6 3 22 -3 36
-14 14 -11 41 -25 60 -31 19 -6 32 -16 29 -20 -9 -15 133 -108 245 -162 113
-54 150 -70 150 -64 0 3 -45 35 -100 72 -88 60 -103 67 -120 56 -18 -11 -19
-9 -17 10 2 19 -9 26 -76 52 -43 16 -73 32 -67 36 6 3 -29 28 -77 55 -49 27
-99 56 -113 64 -15 10 -21 11 -17 4 13 -22 -2 -15 -56 25 -77 56 -75 56 -91
24z"/>
<path d="M15482 6944 c-13 -24 -442 -1415 -442 -1431 0 -34 19 -6 37 55 12 37
103 324 203 637 249 779 235 734 223 746 -8 8 -14 6 -21 -7z"/>
<path d="M15496 6847 c-14 -45 -115 -363 -225 -707 -110 -343 -199 -625 -198
-627 2 -1 427 435 880 903 l148 153 -89 45 c-127 64 -260 146 -371 230 -53 39
-101 74 -107 78 -8 5 -20 -19 -38 -75z"/>
<path d="M17310 6783 l0 -153 84 0 85 0 -63 113 c-35 61 -73 130 -84 152 l-21
40 -1 -152z"/>
<path d="M15104 6552 c-194 -202 -409 -427 -480 -501 l-128 -134 53 -49 c109
-100 463 -359 475 -347 3 2 99 312 216 689 116 377 213 691 215 698 2 6 3 12
2 12 -1 0 -160 -166 -353 -368z"/>
<path d="M18657 6903 c-3 -6 351 -994 489 -1360 16 -44 30 -54 40 -29 3 7 -83
254 -192 547 -108 294 -222 603 -253 688 -52 142 -71 176 -84 154z"/>
<path d="M18605 6864 c-56 -46 -249 -171 -348 -223 -63 -34 -95 -57 -90 -64
10 -16 963 -1047 968 -1047 3 0 0 12 -6 28 -6 15 -116 317 -245 672 -130 355
-238 648 -242 652 -4 3 -20 -5 -37 -18z"/>
<path d="M10835 6869 c33 -16 879 -258 884 -253 12 11 -43 29 -449 142 -413
116 -481 133 -435 111z"/>
<path d="M18816 6790 c44 -52 131 -156 194 -230 126 -150 140 -166 119 -130
-9 14 -32 53 -53 88 -21 35 -36 65 -33 68 2 3 31 -41 64 -96 59 -99 60 -100
78 -80 10 11 23 20 28 20 6 0 0 -12 -14 -26 l-24 -26 110 -103 c60 -57 112
-102 116 -99 4 2 16 -11 28 -28 20 -33 191 -206 175 -178 -22 40 -317 399
-324 395 -5 -3 -18 10 -29 29 -28 44 -200 208 -211 201 -5 -3 -16 7 -24 22
-14 26 -213 220 -260 253 -12 8 15 -28 60 -80z"/>
<path d="M20515 6765 c-38 -64 -111 -173 -162 -243 -51 -70 -97 -135 -103
-144 -8 -14 87 -92 648 -524 361 -279 676 -523 699 -542 l42 -34 85 115 c139
187 338 495 405 625 l19 37 -778 413 c-428 226 -780 412 -782 412 -2 0 -35
-52 -73 -115z"/>
<path d="M10372 6349 c-237 -282 -430 -514 -429 -515 3 -4 1733 759 1741 767
3 3 -189 60 -427 129 -238 68 -437 125 -443 127 -5 2 -205 -227 -442 -508z"/>
<path d="M18724 6825 c9 -22 119 -321 246 -664 126 -343 231 -626 234 -629 3
-2 24 7 48 21 54 31 319 228 336 249 10 13 -49 88 -409 514 -232 275 -432 510
-446 524 l-24 25 15 -40z"/>
<path d="M18130 6565 c0 -9 5 -26 11 -38 16 -29 960 -1051 974 -1055 7 -2 17
3 22 10 9 10 -107 141 -488 553 -274 297 -503 541 -509 543 -5 2 -10 -4 -10
-13z"/>
<path d="M16700 6561 c0 -4 60 -25 133 -45 72 -21 140 -40 150 -42 15 -5 17 2
17 45 l0 51 -150 0 c-82 0 -150 -4 -150 -9z"/>
<path d="M15590 6028 c-283 -292 -517 -535 -519 -541 -2 -5 2 -8 8 -6 19 7
1041 1053 1041 1066 0 7 -3 13 -7 12 -5 0 -240 -239 -523 -531z"/>
<path d="M18045 6543 c-22 -9 -41 -17 -43 -18 -1 -1 39 -69 89 -151 50 -82 89
-138 85 -124 -26 111 -81 310 -86 309 -3 0 -23 -7 -45 -16z"/>
<path d="M11732 6528 c-11 -14 -432 -855 -432 -863 0 -26 43 52 233 422 244
475 233 453 219 453 -5 0 -14 -6 -20 -12z"/>
<path d="M16155 6528 c-10 -29 -74 -293 -71 -295 1 -2 29 42 61 97 32 55 60
98 63 96 2 -3 -29 -60 -68 -127 -63 -106 -78 -140 -106 -248 -19 -69 -32 -126
-30 -128 6 -6 209 482 211 507 1 14 9 37 19 52 l18 27 -37 16 c-45 18 -54 19
-60 3z"/>
<path d="M14866 6465 c-26 -35 -51 -64 -55 -62 -10 3 -281 -295 -276 -303 2
-4 -23 -30 -56 -59 l-60 -53 23 -25 23 -24 23 28 c12 15 26 27 31 26 11 -3
435 440 433 453 0 5 6 16 14 25 14 15 12 19 -14 38 -17 12 -32 21 -34 21 -2 0
-26 -29 -52 -65z"/>
<path d="M10842 6168 c-469 -193 -851 -352 -850 -354 5 -4 1280 -156 1283
-152 10 13 430 858 426 857 -3 0 -390 -158 -859 -351z"/>
<path d="M11547 6083 c-120 -234 -216 -427 -215 -429 5 -5 948 -116 958 -112
6 2 -15 41 -46 87 -139 208 -304 501 -410 731 -36 80 -67 146 -68 147 0 1 -99
-190 -219 -424z"/>
<path d="M13145 6005 c-401 -265 -730 -486 -732 -491 -4 -12 157 -228 271
-364 172 -206 454 -500 479 -500 3 0 271 293 597 651 l591 650 -103 107 c-114
118 -237 262 -313 365 -27 37 -51 67 -54 66 -3 0 -334 -218 -736 -484z"/>
<path d="M15595 5984 c-425 -431 -496 -507 -484 -519 37 -36 473 -255 484
-243 3 2 115 285 251 628 135 344 248 628 251 633 2 4 2 7 0 7 -2 0 -228 -228
-502 -506z"/>
<path d="M18170 6465 c0 -5 500 -1218 504 -1223 10 -10 428 208 423 220 -3 10
-927 1010 -927 1003z"/>
<path d="M18170 6321 c33 -122 45 -153 100 -241 34 -56 60 -104 57 -106 -2 -3
-23 27 -47 66 -23 40 -44 69 -47 66 -7 -7 49 -216 58 -216 4 0 20 5 34 12 18
8 24 16 19 27 -4 9 -7 25 -8 36 -1 20 -183 473 -196 488 -4 5 9 -55 30 -132z"/>
<path d="M17990 6427 c0 -14 25 -119 56 -234 103 -382 163 -606 225 -843 34
-129 63 -236 64 -238 4 -5 198 67 207 76 5 5 -106 269 -268 633 -152 343 -278
626 -280 628 -2 2 -4 -7 -4 -22z"/>
<path d="M16633 6388 c24 -61 112 -248 116 -247 13 1 171 210 166 219 -3 6
-23 10 -43 10 -20 0 -77 7 -127 15 -110 18 -118 18 -112 3z"/>
<path d="M17443 6382 c-57 -8 -103 -19 -103 -24 0 -36 121 -233 133 -217 4 5
82 177 103 227 17 38 25 37 -133 14z"/>
<path d="M16883 6238 c-55 -68 -103 -129 -107 -136 -8 -13 100 -272 113 -272
4 0 30 54 59 119 l52 120 0 145 c0 80 -4 146 -9 146 -5 0 -54 -55 -108 -122z"/>
<path d="M19216 6319 c61 -82 378 -448 385 -443 4 2 13 -5 19 -16 10 -19 12
-19 36 -3 l25 16 -87 88 c-49 49 -90 87 -92 85 -2 -3 20 -39 48 -81 28 -42 50
-79 47 -81 -2 -2 -36 44 -75 103 -52 79 -106 142 -198 233 -70 69 -119 113
-108 99z"/>
<path d="M20150 6258 c-36 -45 -140 -157 -233 -250 l-167 -168 552 -689 553
-689 50 42 c153 126 527 516 674 703 l41 51 -700 541 c-385 298 -701 541 -703
540 -1 0 -31 -37 -67 -81z"/>
<path d="M15958 5732 c-125 -296 -228 -544 -230 -552 -2 -10 21 -23 74 -42
l78 -27 15 52 c39 138 295 1101 293 1103 -2 1 -105 -239 -230 -534z"/>
<path d="M16462 6130 l-72 -129 17 -136 c9 -74 19 -132 23 -128 21 25 207 260
213 269 5 9 -89 234 -105 249 -2 3 -37 -54 -76 -125z"/>
<path d="M17640 6174 c-23 -49 -48 -106 -57 -126 l-15 -36 179 -223 178 -223
3 44 c2 28 -11 98 -38 197 -37 140 -49 169 -125 306 l-84 151 -41 -90z"/>
<path d="M17311 6021 c-1 -129 1 -232 3 -230 2 2 27 56 56 120 l51 116 -55
114 -54 114 -1 -234z"/>
<path d="M16947 5921 c-26 -60 -47 -116 -47 -125 0 -38 18 -18 49 55 18 44 36
78 39 75 2 -3 -12 -43 -32 -89 l-37 -83 40 -85 40 -84 -1 223 c0 122 -1 222
-2 222 -1 0 -23 -49 -49 -109z"/>
<path d="M16547 5820 l-118 -149 11 -88 c15 -117 15 -119 40 -102 19 13 240
355 240 371 0 10 -48 118 -52 118 -2 -1 -56 -68 -121 -150z"/>
<path d="M17537 5947 c-5 -17 19 -82 89 -238 52 -118 99 -218 104 -223 7 -7
164 -44 193 -46 4 0 7 12 7 28 0 20 -46 84 -181 252 -221 275 -205 258 -212
227z"/>
<path d="M14326 5865 c-26 -36 -51 -63 -56 -60 -10 6 -212 -214 -205 -225 3
-4 -16 -25 -41 -46 -44 -35 -45 -38 -28 -51 17 -12 21 -11 37 12 10 14 22 23
27 20 9 -6 292 290 284 297 -3 3 13 21 35 40 l41 35 -23 21 -23 22 -48 -65z"/>
<path d="M18320 5889 c-34 -14 -33 -12 -10 -52 12 -20 18 -42 14 -48 -4 -7 -3
-9 3 -6 11 7 119 -171 110 -180 -3 -2 -26 34 -53 81 -26 47 -49 84 -51 83 -1
-2 44 -109 102 -238 57 -129 105 -230 105 -225 0 20 -62 214 -81 247 -10 21
-17 43 -14 50 6 18 -77 292 -90 295 -6 1 -21 -2 -35 -7z"/>
<path d="M15849 5718 c-24 -90 -43 -170 -42 -178 1 -7 -4 -25 -12 -40 -15 -29
-68 -211 -63 -216 2 -2 27 52 55 119 28 67 67 159 87 205 19 45 33 82 31 82
-2 0 -22 -34 -45 -76 -23 -41 -44 -73 -47 -71 -2 3 31 67 75 144 43 76 81 146
84 155 5 11 -3 18 -31 27 -21 6 -40 11 -43 11 -3 0 -24 -73 -49 -162z"/>
<path d="M16298 5699 c-25 -96 -45 -175 -43 -177 1 -1 28 31 60 73 l58 75 -7
67 c-16 153 -17 152 -68 -38z"/>
<path d="M13879 5273 c-309 -324 -584 -611 -611 -639 l-49 -50 138 -118 c243
-208 656 -508 673 -489 11 12 950 1473 950 1478 0 2 -35 28 -77 56 -120 81
-252 180 -356 268 -53 45 -98 81 -101 81 -2 0 -258 -264 -567 -587z"/>
<path d="M16647 5651 c-54 -85 -96 -155 -95 -156 2 -2 49 6 106 17 l103 21 25
48 c13 27 24 56 24 66 -1 10 -15 49 -33 88 l-33 69 -97 -153z"/>
<path d="M17446 5749 c-13 -30 -38 -85 -55 -123 -17 -38 -30 -70 -29 -72 4 -3
303 -63 305 -61 2 2 -184 297 -192 305 -3 3 -16 -19 -29 -49z"/>
<path d="M9950 5782 c0 -18 115 -263 225 -480 130 -257 263 -489 403 -702 l95
-145 289 579 c159 318 288 580 286 582 -4 4 -1255 174 -1281 174 -9 0 -17 -4
-17 -8z"/>
<path d="M18410 5785 c0 -22 73 -244 91 -277 11 -21 18 -42 14 -48 -3 -5 11
-65 31 -134 l37 -124 28 10 c35 12 35 16 8 62 -11 19 -17 41 -13 47 4 7 3 9
-4 6 -10 -7 -88 120 -79 129 3 3 21 -23 42 -58 46 -80 45 -75 -60 177 -85 205
-95 227 -95 210z"/>
<path d="M19545 5679 c-55 -44 -152 -114 -215 -156 -63 -42 -116 -77 -118 -78
-2 -2 934 -1484 944 -1494 4 -5 163 99 294 192 94 67 340 258 340 264 0 4
-1140 1353 -1143 1352 -1 0 -47 -36 -102 -80z"/>
<path d="M11320 5630 c0 -5 6 -10 13 -10 7 0 231 -29 497 -65 298 -41 487 -62
492 -57 6 6 6 12 0 16 -6 3 -219 31 -474 61 -255 30 -478 57 -495 60 -20 4
-33 2 -33 -5z"/>
<path d="M10974 5028 c-163 -326 -291 -588 -286 -583 6 6 93 170 192 365 100
195 233 455 296 577 63 123 110 225 104 228 -5 3 -143 -261 -306 -587z"/>
<path d="M11008 5028 c-163 -320 -295 -584 -293 -586 2 -2 357 229 789 514
432 285 784 519 783 520 -2 2 -967 134 -978 134 -2 0 -138 -262 -301 -582z"/>
<path d="M17330 5490 c-11 -21 -20 -48 -20 -60 0 -19 5 -20 200 -20 l201 0
-15 28 c-14 27 -23 31 -173 60 -87 18 -161 32 -165 32 -4 0 -17 -18 -28 -40z"/>
<path d="M16633 5486 c-74 -15 -107 -27 -117 -41 -9 -11 -16 -23 -16 -27 0 -5
47 -8 105 -8 104 0 105 0 118 28 21 39 30 72 20 71 -4 -1 -54 -11 -110 -23z"/>
<path d="M12305 5329 c-20 -85 -72 -298 -116 -474 -69 -284 -80 -340 -65 -324
13 13 234 925 227 937 -6 10 -22 -40 -46 -139z"/>
<path d="M13962 5460 c-7 -12 -16 -18 -21 -16 -10 6 -207 -212 -204 -224 2 -5
-27 -34 -63 -66 -35 -31 -63 -62 -61 -67 8 -26 29 -13 77 47 29 37 55 64 60
61 4 -3 65 54 134 126 103 106 125 133 115 145 -15 19 -22 18 -37 -6z"/>
<path d="M11548 4951 c-422 -279 -773 -512 -780 -519 -9 -9 -3 -10 23 -7 19 3
320 28 669 56 349 27 635 51 636 52 5 6 225 919 222 921 -1 2 -348 -225 -770
-503z"/>
<path d="M12361 5403 c-6 -21 -57 -224 -115 -450 l-104 -413 36 0 c20 0 228
16 462 35 234 19 431 35 439 35 8 0 -53 69 -135 153 -196 199 -338 364 -492
570 l-81 108 -10 -38z"/>
<path d="M14565 4754 c-242 -377 -457 -712 -477 -744 l-37 -58 122 -73 c202
-121 702 -370 740 -369 9 0 553 1363 653 1633 4 11 1 17 -7 17 -21 0 -346 161
-454 225 -51 30 -95 55 -97 54 -2 0 -201 -308 -443 -685z"/>
<path d="M19110 5383 c-41 -25 -150 -82 -241 -127 l-167 -83 337 -814 c295
-713 339 -814 356 -811 33 5 492 237 615 310 63 38 114 74 112 81 -2 9 -387
621 -908 1442 l-30 46 -74 -44z"/>
<path d="M16196 5318 c-8 -29 -18 -65 -21 -80 l-7 -28 75 0 75 0 51 80 51 80
-105 0 -104 0 -15 -52z"/>
<path d="M16474 5318 c3 -29 6 -65 6 -80 0 -28 0 -28 73 -28 l72 0 29 67 c15
37 30 73 33 80 4 10 -19 13 -107 13 l-113 0 7 -52z"/>
<path d="M16856 5290 l-67 -80 106 0 c93 0 105 2 105 18 0 24 -57 142 -69 142
-5 0 -39 -36 -75 -80z"/>
<path d="M17413 5293 l65 -78 161 -3 c88 -1 161 0 161 3 0 3 -14 33 -31 66
-16 33 -28 66 -27 71 2 6 20 -23 39 -65 18 -42 38 -77 42 -77 13 0 -2 41 -38
100 l-33 55 -203 3 -202 3 66 -78z"/>
<path d="M21571 5089 c-149 -182 -373 -414 -570 -592 -41 -36 -73 -68 -70 -70
7 -6 891 -148 895 -144 2 2 -34 201 -81 443 -47 241 -85 442 -85 447 0 19 -21
0 -89 -84z"/>
<path d="M16720 5125 c-19 -25 -36 -49 -38 -53 -1 -4 70 -21 158 -38 l160 -30
0 83 0 83 -122 0 -123 -1 -35 -44z"/>
<path d="M17310 5094 c0 -67 2 -75 18 -70 9 2 55 12 102 21 122 23 117 18 70
75 l-42 50 -74 0 -74 0 0 -76z"/>
<path d="M17530 5153 c5 -10 21 -31 34 -47 l24 -29 114 22 c147 29 141 26 128
51 -10 19 -21 20 -161 20 -140 0 -149 -1 -139 -17z"/>
<path d="M16284 5078 c-38 -59 -31 -70 56 -90 41 -9 88 -17 103 -17 28 -1 28
-1 21 52 -4 28 -9 55 -13 59 -3 4 -37 14 -74 22 l-68 14 -25 -40z"/>
<path d="M18458 5081 c-54 -20 -98 -41 -98 -48 0 -12 450 -1696 454 -1700 6
-7 467 158 484 173 2 1 -157 365 -354 808 -258 581 -363 806 -374 805 -8 -1
-59 -18 -112 -38z"/>
<path d="M17731 5084 c-63 -13 -116 -25 -118 -27 -7 -8 71 -97 86 -97 21 0
195 31 199 35 4 4 -45 116 -50 114 -2 -1 -54 -12 -117 -25z"/>
<path d="M15675 5067 c-8 -19 -161 -380 -341 -803 -179 -423 -328 -774 -331
-780 -2 -7 28 -24 74 -42 103 -39 325 -114 327 -110 1 2 41 149 89 328 47 179
149 560 227 848 77 288 140 527 140 531 0 6 -104 45 -158 59 -7 2 -19 -12 -27
-31z"/>
<path d="M16621 5003 c-50 -59 -55 -57 153 -74 l157 -13 31 32 c38 37 47 32
-132 67 -74 14 -142 28 -151 31 -11 3 -31 -12 -58 -43z"/>
<path d="M17480 5034 c-36 -8 -89 -19 -117 -25 l-53 -10 0 -40 c0 -36 2 -39
28 -39 36 1 217 18 264 26 l38 6 -42 49 c-22 27 -44 49 -47 48 -3 -1 -35 -7
-71 -15z"/>
<path d="M16103 4792 l-82 -127 -56 -210 c-31 -115 -60 -225 -65 -244 -12 -43
-30 -63 218 241 l202 247 -61 105 c-33 58 -64 108 -68 110 -4 3 -43 -52 -88
-122z"/>
<path d="M18006 4886 c-18 -34 -18 -35 23 -215 l40 -182 123 -150 c67 -82 124
-146 125 -142 2 4 -25 112 -60 238 l-62 230 -80 127 c-44 70 -82 128 -85 128
-3 0 -14 -15 -24 -34z"/>
<path d="M16521 4875 c-5 -5 -18 -57 -30 -114 l-21 -105 42 -73 c23 -40 45
-72 48 -71 4 2 75 77 159 168 l152 165 -58 7 c-208 27 -285 33 -292 23z"/>
<path d="M17565 4873 c-66 -7 -142 -17 -170 -21 l-49 -7 152 -165 c84 -91 156
-166 160 -167 4 -2 38 51 75 117 l69 121 -57 69 c-31 39 -57 69 -58 69 -1 -1
-56 -8 -122 -16z"/>
<path d="M16756 4660 c-97 -105 -175 -194 -173 -198 2 -4 91 -159 197 -344
153 -266 197 -335 207 -326 10 8 13 114 13 534 l0 524 -34 0 c-31 0 -48 -15
-210 -190z"/>
<path d="M17310 4360 c1 -351 3 -460 12 -445 9 16 299 520 314 546 3 5 -210
242 -312 349 -12 12 -14 -51 -14 -450z"/>
<path d="M17807 4540 l-68 -120 203 -219 c111 -121 204 -219 205 -217 4 4 -96
456 -104 470 -6 10 -134 168 -157 193 -8 9 -28 -18 -79 -107z"/>
<path d="M16098 4363 l-235 -288 -57 -213 c-32 -118 -56 -216 -53 -218 2 -3
142 144 310 326 338 366 309 323 339 500 11 64 11 66 -21 123 -18 31 -36 57
-40 57 -5 0 -114 -129 -243 -287z"/>
<path d="M12575 4533 c-242 -19 -441 -36 -442 -37 -7 -7 -338 -1346 -332
-1344 7 3 1234 1349 1278 1401 17 22 39 23 -504 -20z"/>
<path d="M13155 4521 c-3 -6 -25 -198 -50 -428 -24 -230 -47 -435 -50 -455 -4
-28 -2 -38 8 -38 10 0 25 110 61 453 26 248 49 458 51 465 5 14 -11 16 -20 3z"/>
<path d="M13189 4519 c-8 -60 -96 -905 -94 -907 2 -3 856 305 861 311 2 2 -72
55 -164 119 -178 124 -397 296 -524 410 -43 39 -78 69 -79 67z"/>
<path d="M11375 4440 c-330 -26 -613 -50 -628 -51 l-28 -4 73 -100 c250 -345
482 -619 779 -920 103 -104 189 -188 192 -185 5 6 317 1281 317 1298 0 17 -31
16 -705 -38z"/>
<path d="M12493 3827 c-348 -363 -632 -662 -630 -663 4 -4 1161 417 1168 425
7 6 103 891 97 896 -2 1 -288 -295 -635 -658z"/>
<path d="M16537 4423 c-7 -11 386 -696 402 -701 6 -2 11 1 11 6 0 11 -384 680
-399 695 -5 5 -11 5 -14 0z"/>
<path d="M17487 4119 c-106 -184 -177 -318 -175 -330 2 -13 69 93 186 298 101
175 183 322 183 328 1 36 -36 -21 -194 -296z"/>
<path d="M20911 4395 c11 -11 148 -36 469 -85 250 -38 456 -67 459 -64 2 2 1
7 -3 11 -7 7 -875 152 -916 153 -22 0 -23 -2 -9 -15z"/>
<path d="M18095 4370 c55 -258 99 -438 113 -456 33 -43 257 -281 259 -275 2 3
-24 104 -56 223 l-58 216 -114 138 c-163 197 -150 184 -144 154z"/>
<path d="M16443 4322 l-51 -58 -61 -304 c-33 -167 -59 -306 -56 -308 6 -6 597
57 604 63 2 3 -63 121 -144 262 -82 142 -167 291 -189 330 -23 40 -43 73 -46
73 -3 0 -28 -27 -57 -58z"/>
<path d="M17527 4054 c-103 -180 -185 -329 -183 -332 9 -8 886 -108 886 -101
0 4 -14 67 -30 140 -29 127 -33 136 -74 179 -23 25 -125 134 -225 243 -100
108 -183 197 -184 197 -2 0 -87 -147 -190 -326z"/>
<path d="M20952 4342 c64 -89 1133 -1412 1135 -1406 3 10 -242 1283 -248 1288
-4 3 -876 136 -892 136 -5 0 -2 -8 5 -18z"/>
<path d="M20820 4332 c0 -27 158 -833 164 -840 4 -3 8 -3 10 -1 4 3 -133 769
-149 837 -6 26 -25 30 -25 4z"/>
<path d="M20750 4284 c-111 -90 -256 -196 -387 -284 l-142 -97 367 -196 c202
-108 368 -194 370 -193 4 5 -152 806 -158 806 -3 0 -25 -16 -50 -36z"/>
<path d="M20866 4292 c4 -18 39 -208 78 -423 l72 -390 503 -270 c277 -148 505
-268 507 -267 2 3 -1127 1343 -1157 1373 -6 6 -7 -2 -3 -23z"/>
<path d="M16058 3906 c-157 -171 -285 -312 -284 -313 1 -1 100 9 221 22 121
14 225 25 231 25 10 0 131 568 122 574 -2 2 -132 -137 -290 -308z"/>
<path d="M21860 4214 c0 -5 23 -126 50 -269 28 -143 85 -435 126 -650 41 -214
77 -397 81 -405 23 -61 -3 88 -117 664 -112 572 -140 702 -140 660z"/>
<path d="M13540 3756 c-498 -182 -454 -165 -448 -172 8 -7 871 296 888 312 12
12 12 14 -5 13 -11 0 -207 -69 -435 -153z"/>
<path d="M14007 3883 c-2 -5 13 -204 33 -443 44 -510 50 -498 15 30 -14 206
-25 385 -25 398 0 21 -14 30 -23 15z"/>
<path d="M14046 3828 c2 -24 16 -223 29 -443 14 -220 27 -403 28 -408 2 -8
776 454 777 463 0 3 -55 30 -122 59 -157 68 -450 218 -595 304 -61 37 -114 67
-116 67 -3 0 -3 -19 -1 -42z"/>
<path d="M20212 3861 c8 -19 973 -1539 976 -1536 2 1 -24 144 -58 316 -34 173
-82 422 -107 554 -25 132 -50 245 -55 252 -5 7 -46 32 -91 56 -45 25 -214 117
-375 205 -161 89 -292 158 -290 153z"/>
<path d="M13610 3745 c-179 -63 -365 -129 -415 -146 -49 -17 -95 -36 -101 -43
-6 -6 -38 -275 -73 -606 -34 -327 -64 -606 -67 -620 -4 -17 -2 -22 5 -15 12
12 991 1533 991 1540 0 9 -11 5 -340 -110z"/>
<path d="M13658 3342 c-179 -279 -400 -622 -490 -762 -191 -297 -184 -285
-172 -278 5 3 246 148 537 322 l527 318 0 36 c0 52 -68 863 -72 868 -2 2 -151
-225 -330 -504z"/>
<path d="M20085 3823 c-79 -52 -394 -219 -523 -278 -73 -32 -132 -62 -132 -65
0 -4 53 -43 118 -87 64 -45 224 -156 355 -247 l237 -165 0 434 c0 239 -3 435
-7 434 -5 0 -26 -12 -48 -26z"/>
<path d="M18237 3728 c13 -62 25 -113 26 -114 6 -6 170 -24 174 -20 5 4 -214
246 -222 246 -1 0 8 -50 22 -112z"/>
<path d="M20186 3608 c-3 -123 -7 -319 -8 -437 l-3 -214 505 -352 c278 -194
506 -351 508 -350 3 3 -972 1550 -988 1568 -4 5 -10 -92 -14 -215z"/>
<path d="M17310 3679 c0 -8 14 -35 30 -61 l30 -48 437 0 c240 0 433 4 428 8
-6 5 -197 30 -425 56 -228 26 -434 50 -457 53 -33 4 -43 2 -43 -8z"/>
<path d="M16538 3646 c-273 -30 -278 -31 -278 -53 l0 -23 294 0 294 0 31 50
c17 28 31 52 31 55 0 10 -99 2 -372 -29z"/>
<path d="M13046 3528 c-3 -13 -32 -284 -66 -603 -33 -319 -63 -597 -66 -617
-5 -31 -3 -38 10 -38 11 0 16 9 16 33 0 17 29 304 65 636 76 703 67 611 55
611 -5 0 -12 -10 -14 -22z"/>
<path d="M12435 3334 c-319 -112 -586 -206 -594 -209 -11 -4 -11 -8 0 -22 26
-30 263 -235 404 -348 220 -176 638 -475 650 -464 3 4 135 1214 135 1242 0 4
-3 7 -7 6 -5 0 -269 -93 -588 -205z"/>
<path d="M17395 3530 c4 -6 158 -10 431 -10 276 0 424 3 424 10 0 7 -150 10
-431 10 -284 0 -428 -3 -424 -10z"/>
<path d="M16233 3475 c-3 -9 -3 -18 0 -22 4 -3 95 -16 204 -29 109 -12 219
-25 245 -29 46 -5 47 -5 77 39 17 25 31 47 31 50 0 3 -124 6 -275 6 -239 0
-276 -2 -282 -15z"/>
<path d="M16811 3439 c-17 -28 -31 -52 -31 -53 0 -2 30 -6 68 -10 37 -4 86
-10 110 -13 l42 -6 0 67 0 66 -79 0 -78 0 -32 -51z"/>
<path d="M17430 3482 c0 -5 35 -63 55 -90 3 -4 768 88 773 93 3 3 -182 5 -411
5 -229 0 -417 -3 -417 -8z"/>
<path d="M15855 3331 l150 -151 63 -12 c34 -6 65 -9 68 -5 12 12 56 249 47
257 -4 4 -98 17 -208 29 -110 12 -216 25 -235 28 -33 5 -27 -3 115 -146z"/>
<path d="M19410 3467 c0 -5 150 -368 497 -1207 74 -179 153 -371 176 -428 l42
-103 7 83 c3 46 6 322 6 613 l1 530 -311 220 c-171 121 -335 237 -365 258 -29
21 -53 36 -53 34z"/>
<path d="M21022 3450 c4 -14 1070 -602 1077 -594 14 14 -80 69 -503 295 -259
138 -495 265 -525 282 -29 16 -52 24 -49 17z"/>
<path d="M17868 3406 c-191 -23 -349 -44 -352 -47 -3 -3 31 -63 75 -132 l81
-127 52 6 c104 12 327 44 389 54 60 11 68 16 127 75 l62 63 -16 76 c-17 72
-19 76 -44 75 -15 -1 -183 -20 -374 -43z"/>
<path d="M19316 3429 c-20 -54 -216 -865 -213 -878 3 -14 5 -14 10 -1 4 8 49
188 102 400 118 472 115 463 121 457 3 -2 -43 -195 -101 -427 -58 -232 -107
-430 -108 -440 -1 -11 151 -143 477 -413 264 -219 481 -396 482 -394 5 4 -745
1690 -756 1701 -6 6 -11 4 -14 -5z"/>
<path d="M19225 3403 c-33 -14 -134 -52 -225 -84 -91 -31 -165 -61 -164 -66 1
-4 38 -148 84 -318 l82 -311 39 -33 c27 -22 41 -28 44 -19 2 7 50 195 105 418
55 223 103 413 106 423 7 22 2 21 -71 -10z"/>
<path d="M16197 3289 c-15 -73 -25 -135 -22 -137 5 -6 366 -55 370 -50 1 2 39
59 83 128 69 106 79 126 64 132 -9 3 -105 16 -212 28 -107 12 -209 24 -226 26
l-31 6 -26 -133z"/>
<path d="M21030 3411 c0 -19 212 -1166 216 -1170 12 -12 497 330 718 507 l118
95 -28 15 c-59 30 -960 525 -991 544 -18 11 -33 15 -33 9z"/>
<path d="M15000 3391 c0 -11 229 -674 235 -679 3 -3 5 -2 5 1 0 3 32 123 70
266 39 143 70 266 70 274 0 7 -36 24 -87 41 -49 16 -134 45 -190 66 -57 21
-103 35 -103 31z"/>
<path d="M14480 3157 c-367 -217 -375 -223 -373 -252 1 -17 19 -293 38 -615
20 -322 39 -596 42 -610 4 -21 11 -10 39 60 24 60 584 1483 641 1628 3 6 1 12
-3 11 -5 0 -178 -100 -384 -222z"/>
<path d="M14593 2518 c-199 -469 -361 -853 -360 -855 3 -2 873 669 897 693 8
8 31 72 51 142 l35 127 -125 372 c-69 205 -128 373 -131 373 -3 0 -168 -383
-367 -852z"/>
<path d="M16735 3321 c-12 -20 -48 -76 -79 -125 -32 -48 -54 -92 -49 -96 4 -4
49 -10 99 -13 l92 -6 85 122 c47 67 84 123 81 126 -3 3 -50 10 -105 16 l-101
11 -23 -35z"/>
<path d="M17435 3355 c-5 -2 -36 -6 -67 -10 l-58 -6 0 -52 c1 -47 6 -60 55
-129 l55 -77 87 6 c49 3 94 9 100 12 9 4 -13 46 -67 131 -79 124 -86 132 -105
125z"/>
<path d="M16923 3187 l-71 -102 70 -3 c39 -2 72 -1 75 1 2 3 2 50 1 105 l-3
101 -72 -102z"/>
<path d="M15552 2914 c-41 -152 -72 -278 -69 -280 2 -2 115 82 251 187 l248
192 -62 62 c-62 62 -64 64 -166 89 -57 14 -109 26 -116 26 -9 0 -39 -97 -86
-276z"/>
<path d="M18473 3167 c-46 -11 -83 -24 -83 -28 0 -14 265 -227 267 -216 2 7
-12 68 -30 137 -28 103 -37 125 -53 127 -10 0 -56 -8 -101 -20z"/>
<path d="M18198 2806 l-147 -294 144 -223 c79 -123 152 -226 162 -230 10 -3
65 -10 122 -14 98 -7 103 -6 98 11 -3 11 -56 246 -117 524 -61 278 -111 508
-113 513 -1 4 -68 -125 -149 -287z"/>
<path d="M17940 3065 c-80 -13 -162 -23 -184 -24 -46 -1 -46 1 29 -115 l57
-89 124 124 c107 107 134 135 122 128 -2 -1 -68 -12 -148 -24z"/>
<path d="M18385 3059 c25 -120 226 -1024 228 -1025 3 -3 291 -32 294 -30 1 1
-49 189 -110 418 l-112 417 -103 87 c-57 47 -101 89 -98 91 3 3 46 -29 95 -72
50 -42 91 -73 90 -68 0 4 -55 53 -122 107 -67 55 -109 85 -93 68 17 -18 25
-32 19 -32 -6 0 -16 7 -23 15 -7 9 -27 25 -43 37 l-29 21 7 -34z"/>
<path d="M16202 3021 c18 -33 63 -91 100 -127 l66 -67 67 103 c36 56 65 103
63 104 -2 2 -66 10 -143 20 -77 10 -150 20 -163 23 -22 5 -22 4 10 -56z"/>
<path d="M18094 2897 l-178 -173 50 -80 c28 -43 54 -78 58 -77 8 2 258 503
252 503 -2 0 -83 -78 -182 -173z"/>
<path d="M16474 2913 l-76 -116 59 -58 58 -58 117 166 c65 92 117 167 115 168
-1 1 -46 5 -100 8 l-98 7 -75 -117z"/>
<path d="M17543 3023 c-40 -2 -73 -6 -73 -9 0 -8 212 -304 223 -311 5 -3 34
19 64 49 l55 55 -72 112 c-64 98 -75 111 -98 109 -15 -1 -60 -4 -99 -5z"/>
<path d="M16680 2845 c-63 -91 -119 -172 -125 -180 -8 -12 12 -37 90 -115 55
-55 103 -100 106 -100 4 0 62 69 128 154 l121 154 0 126 0 126 -102 0 -103 -1
-115 -164z"/>
<path d="M17336 2998 c4 -7 70 -91 147 -186 76 -96 137 -176 134 -179 -3 -2
-69 76 -148 174 -171 214 -159 201 -159 181 0 -9 65 -97 145 -197 l146 -181
29 22 c17 12 30 25 30 30 0 4 -53 83 -119 175 l-118 168 -48 3 c-36 2 -45 0
-39 -10z"/>
<path d="M15738 2807 c-273 -212 -282 -220 -276 -237 2 -6 126 81 276 195 247
186 287 223 256 231 -5 2 -120 -84 -256 -189z"/>
<path d="M15743 2752 c-150 -114 -277 -212 -284 -219 -6 -6 -27 -67 -45 -135
l-34 -123 42 -122 43 -123 35 1 c19 0 111 8 204 17 l170 17 33 47 c31 43 38
68 108 419 l75 373 -27 28 c-15 15 -32 28 -37 27 -6 0 -133 -93 -283 -207z"/>
<path d="M17310 2628 l0 -313 142 142 141 141 -138 171 c-75 94 -139 171 -141
171 -2 0 -4 -141 -4 -312z"/>
<path d="M20170 2829 c0 -52 -5 -332 -11 -622 -6 -291 -8 -531 -5 -535 23 -22
1032 499 1028 531 -1 8 -977 706 -999 714 -10 4 -13 -17 -13 -88z"/>
<path d="M13511 2587 c-299 -177 -546 -327 -548 -333 -4 -13 199 -137 456
-277 183 -100 479 -243 656 -317 l95 -39 0 29 c0 16 -22 301 -50 632 -27 332
-50 609 -50 616 0 6 -3 12 -7 11 -5 -1 -253 -146 -552 -322z"/>
<path d="M16053 2568 c-35 -171 -61 -313 -59 -315 2 -3 257 388 289 443 3 6
-33 49 -81 97 l-87 87 -62 -312z"/>
<path d="M17832 2637 c-29 -29 -52 -56 -52 -59 0 -11 141 -208 149 -208 4 0
22 31 41 69 l33 69 -57 91 c-32 50 -59 91 -60 91 -1 0 -25 -24 -54 -53z"/>
<path d="M16903 2567 c-134 -169 -129 -146 -53 -222 l64 -64 24 42 c13 23 32
51 43 63 18 19 19 34 17 159 l-3 138 -92 -116z"/>
<path d="M16140 2396 c-96 -151 -176 -285 -178 -298 -3 -24 -2 -24 63 -17 36
3 69 10 73 14 4 3 77 106 164 228 l156 222 -15 30 c-15 30 -72 95 -82 95 -4 0
-85 -124 -181 -274z"/>
<path d="M16293 2297 c-78 -111 -141 -202 -140 -203 7 -6 349 34 355 42 5 5
25 30 46 56 l38 47 -74 130 c-40 72 -75 131 -78 131 -3 -1 -69 -92 -147 -203z"/>
<path d="M19126 2491 c34 -35 990 -829 993 -825 2 2 -2 10 -9 19 -19 22 -978
815 -986 815 -5 0 -4 -4 2 -9z"/>
<path d="M17510 2320 c-91 -87 -163 -161 -160 -163 3 -2 86 -12 185 -21 99 -9
200 -19 225 -22 l45 -6 34 70 34 70 -92 116 c-51 64 -96 116 -99 116 -4 -1
-81 -72 -172 -160z"/>
<path d="M19101 2443 c-6 -22 -13 -53 -17 -70 -4 -22 30 -165 122 -509 70
-264 130 -482 133 -486 8 -10 427 131 624 209 l149 59 -484 404 c-265 222
-491 410 -500 418 -15 13 -18 10 -27 -25z"/>
<path d="M17990 2391 l-33 -69 84 -120 84 -121 55 -6 c30 -3 68 -8 83 -10 21
-4 26 -2 20 9 -37 63 -249 386 -254 386 -3 0 -20 -31 -39 -69z"/>
<path d="M14674 1982 c-254 -196 -460 -359 -459 -360 2 -2 167 120 367 270
200 151 404 305 453 342 50 37 93 76 97 87 4 10 6 19 5 19 -1 0 -210 -161
-463 -358z"/>
<path d="M16667 2267 l-26 -34 25 -41 c23 -39 28 -42 68 -42 24 0 58 3 76 6
l32 7 -68 68 c-38 38 -71 69 -75 69 -4 0 -18 -15 -32 -33z"/>
<path d="M14669 1941 c-246 -185 -444 -339 -440 -342 18 -19 639 -234 648
-225 6 5 244 898 241 901 -2 1 -204 -149 -449 -334z"/>
<path d="M16753 2123 c-24 -2 -43 -6 -43 -8 0 -2 18 -35 41 -74 37 -65 43 -71
74 -71 31 0 33 2 39 46 3 26 6 62 6 80 0 37 0 37 -117 27z"/>
<path d="M17348 2045 l4 -75 192 0 192 0 27 55 26 54 -32 5 c-50 8 -349 36
-382 36 l-30 0 3 -75z"/>
<path d="M16564 2101 c-23 -4 -45 -23 -78 -63 -25 -31 -46 -59 -46 -62 0 -3
68 -6 151 -6 l150 0 -38 70 c-36 67 -40 70 -73 69 -19 -1 -49 -4 -66 -8z"/>
<path d="M16305 2079 c-191 -20 -178 -17 -207 -59 -16 -21 -28 -41 -28 -44 0
-3 69 -6 154 -6 l154 0 38 48 c20 26 42 53 47 60 11 14 -30 14 -158 1z"/>
<path d="M17805 2030 c-15 -29 -24 -54 -22 -56 2 -3 73 -3 156 -2 l152 3 -32
42 c-31 40 -34 41 -103 48 -39 3 -83 8 -98 11 -24 5 -30 0 -53 -46z"/>
<path d="M15650 2015 c-63 -7 -127 -13 -142 -14 -18 -1 -28 -7 -28 -16 0 -13
25 -15 169 -15 168 0 169 0 185 25 9 13 16 27 16 30 0 7 -69 4 -200 -10z"/>
<path d="M15981 1854 c-12 -15 -21 -30 -21 -34 0 -4 61 -13 136 -20 l137 -13
33 39 c18 22 33 42 34 47 0 4 -67 7 -149 7 l-150 0 -20 -26z"/>
<path d="M16325 1833 c-19 -25 -34 -47 -32 -49 1 -1 105 -13 230 -25 l227 -22
40 28 c46 32 47 38 20 83 l-20 32 -214 0 -215 0 -36 -47z"/>
<path d="M17348 1856 c-4 -21 6 -33 58 -75 l62 -50 79 7 78 7 32 60 c18 33 33
63 33 68 0 4 -76 7 -169 7 l-169 0 -4 -24z"/>
<path d="M17699 1819 c-16 -34 -29 -63 -26 -65 2 -2 128 8 279 23 l277 27 -31
38 -30 38 -219 0 -219 0 -31 -61z"/>
<path d="M15265 1839 c-2 -8 -34 -124 -70 -259 -36 -135 -68 -252 -71 -261 -4
-14 15 -22 111 -45 79 -19 118 -25 123 -18 4 6 53 83 109 171 l103 159 -41
121 -40 121 -55 6 c-29 3 -79 9 -109 12 -41 5 -56 3 -60 -7z"/>
<path d="M18757 1827 c-93 -9 -98 -11 -94 -31 3 -11 22 -99 43 -193 26 -119
44 -181 59 -199 l22 -27 56 226 c32 125 57 229 57 232 0 6 -13 5 -143 -8z"/>
<path d="M18946 1820 c-3 -8 -33 -125 -66 -258 l-61 -244 22 -34 c24 -39 22
-39 109 -18 120 28 140 35 140 49 0 12 -123 480 -134 510 -2 6 -6 3 -10 -5z"/>
<path d="M15540 1811 c0 -5 11 -40 25 -77 14 -38 28 -76 31 -84 3 -9 25 16 60
70 l56 85 -44 7 c-63 10 -128 9 -128 -1z"/>
<path d="M18529 1802 c-14 -6 -2 -30 69 -140 46 -73 86 -131 89 -129 3 4 -41
218 -53 260 -4 13 -16 17 -47 16 -23 0 -49 -3 -58 -7z"/>
<path d="M15693 1702 c-34 -53 -64 -104 -68 -112 -3 -9 3 -40 13 -69 l18 -54
98 138 c115 162 124 181 93 189 -12 3 -38 6 -57 5 -33 0 -38 -5 -97 -97z"/>
<path d="M18393 1793 c-29 -2 -53 -6 -53 -9 0 -22 370 -510 401 -530 12 -7 8
32 -11 106 -10 37 -261 433 -276 435 -5 1 -33 -1 -61 -2z"/>
<path d="M15909 1752 c-22 -30 -35 -79 -73 -266 -25 -126 -44 -232 -41 -235 3
-3 14 4 25 15 24 25 389 488 387 491 -1 1 -52 7 -112 13 -61 6 -121 12 -135
14 -20 4 -31 -3 -51 -32z"/>
<path d="M17965 1749 c-148 -15 -280 -28 -292 -28 -16 -1 -29 -13 -43 -41 -11
-21 -20 -44 -20 -49 0 -6 106 -94 236 -196 l237 -185 289 0 c229 0 288 3 282
13 -29 48 -404 517 -413 516 -3 -1 -127 -14 -276 -30z"/>
<path d="M16187 1658 c-58 -74 -262 -334 -310 -395 -7 -10 19 -13 124 -13
l134 0 288 226 c158 125 286 228 284 231 -5 5 -377 43 -419 43 -22 0 -40 -17
-101 -92z"/>
<path d="M16660 1487 c-135 -105 -258 -202 -274 -214 l-29 -23 322 0 321 0 0
131 c0 120 -2 134 -22 162 -13 18 -34 55 -48 84 l-25 53 -245 -193z"/>
<path d="M17310 1466 l0 -216 35 0 c35 0 35 0 103 136 l67 135 -22 17 c-12 9
-58 45 -102 80 l-81 63 0 -215z"/>
<path d="M15754 1534 l-81 -115 30 -84 c17 -48 35 -85 43 -85 7 0 17 22 23 53
41 198 69 342 68 344 -1 1 -38 -50 -83 -113z"/>
<path d="M15497 1396 c-48 -75 -87 -139 -87 -141 0 -3 21 -5 48 -5 l47 1 58
82 c61 87 63 97 35 167 l-13 33 -88 -137z"/>
<path d="M17480 1380 c-34 -67 -59 -124 -57 -126 2 -3 100 -3 217 -2 l214 3
-115 89 c-63 50 -133 105 -156 124 l-42 34 -61 -122z"/>
<path d="M14610 1115 l0 -75 70 0 70 0 0 75 0 75 -70 0 -70 0 0 -75z"/>
<path d="M16262 1178 c-7 -7 -12 -28 -12 -49 l0 -36 61 -7 c122 -12 119 -14
119 49 l0 55 -78 0 c-47 0 -83 -5 -90 -12z"/>
<path d="M16440 1135 c0 -36 4 -57 13 -59 6 -3 49 -7 95 -10 l82 -5 0 64 0 65
-95 0 -95 0 0 -55z"/>
<path d="M16640 1125 l0 -65 38 0 c20 0 67 -3 105 -7 l67 -6 0 72 0 71 -105 0
-105 0 0 -65z"/>
<path d="M16870 1120 l0 -70 65 0 65 0 0 70 0 70 -65 0 -65 0 0 -70z"/>
<path d="M17357 1135 c-39 -81 -38 -85 32 -85 89 0 91 2 91 76 l0 64 -48 0
-48 0 -27 -55z"/>
<path d="M17490 1125 l0 -66 78 3 77 3 3 63 3 62 -81 0 -80 0 0 -65z"/>
<path d="M17660 1130 l0 -60 39 0 c21 0 59 3 85 6 l46 7 0 53 0 54 -85 0 -85
0 0 -60z"/>
<path d="M18970 1140 c0 -27 5 -61 12 -75 11 -24 15 -25 99 -25 l88 0 -20 67
c-10 38 -19 71 -19 75 0 5 -36 8 -80 8 l-80 0 0 -50z"/>
<path d="M19403 1143 c3 -27 10 -60 16 -75 10 -27 13 -28 86 -28 l75 0 0 75 0
75 -91 0 -92 0 6 -47z"/>
<path d="M18613 1123 l-73 -15 0 -34 0 -34 90 0 90 0 0 50 c0 57 5 56 -107 33z"/>
<path d="M15031 968 c-5 -18 -28 -103 -51 -188 -22 -85 -43 -162 -46 -170 -3
-10 -2 -11 4 -5 8 8 223 344 246 383 5 9 -11 12 -68 12 l-74 0 -11 -32z"/>
<path d="M15068 728 c-148 -232 -211 -348 -196 -363 3 -3 440 610 446 627 2 4
-14 8 -36 8 l-39 0 -175 -272z"/>
<path d="M15109 622 c-147 -207 -265 -378 -264 -380 7 -7 844 660 849 675 2
10 7 33 11 51 l7 32 -169 0 -168 -1 -266 -377z"/>
<path d="M18420 986 c8 -8 105 -84 214 -170 128 -101 207 -156 222 -156 13 0
24 5 24 10 0 8 -40 199 -65 308 -5 22 -6 22 -207 22 -175 0 -200 -2 -188 -14z"/>
<path d="M18900 994 c0 -9 442 -635 446 -631 15 15 -52 139 -198 368 l-173
269 -37 0 c-21 0 -38 -3 -38 -6z"/>
<path d="M19032 991 c7 -20 242 -380 245 -377 2 2 -19 88 -46 190 -28 102 -51
188 -51 191 0 3 -34 5 -76 5 -42 0 -74 -4 -72 -9z"/>
<path d="M18842 980 c3 -8 20 -84 38 -167 30 -137 36 -153 54 -153 87 -1 194
-120 196 -216 1 -12 47 -55 127 -117 69 -55 122 -93 117 -85 -17 28 -517 734
-526 743 -8 7 -9 5 -6 -5z"/>
<path d="M17220 776 l0 -203 25 5 25 4 0 199 0 199 -25 0 -25 0 0 -204z"/>
</g>
</svg>
